G75*
%MOIN*%
%OFA0B0*%
%FSLAX25Y25*%
%IPPOS*%
%LPD*%
%AMOC8*
5,1,8,0,0,1.08239X$1,22.5*
%
%ADD10C,0.03100*%
%ADD11R,0.02500X0.05000*%
%ADD12R,0.05000X0.10000*%
%ADD13C,0.00600*%
%ADD14C,0.02900*%
%ADD15C,0.02400*%
%ADD16C,0.00800*%
D10*
X0027550Y0042550D03*
X0027550Y0047550D03*
X0032550Y0047550D03*
X0032550Y0042550D03*
X0037550Y0042550D03*
X0037550Y0047550D03*
D11*
X0029150Y0035050D03*
X0025950Y0035050D03*
D12*
X0020050Y0011925D03*
X0007550Y0011925D03*
X0032550Y0011925D03*
X0045050Y0011925D03*
X0057550Y0011925D03*
X0051300Y0076300D03*
X0038800Y0076300D03*
X0026300Y0076300D03*
X0013800Y0076300D03*
D13*
X0003124Y0003619D02*
X0003305Y0003305D01*
X0003619Y0003124D01*
X0003800Y0003100D01*
X0061300Y0003100D01*
X0061481Y0003124D01*
X0061795Y0003305D01*
X0061976Y0003619D01*
X0062000Y0003800D01*
X0062000Y0084425D01*
X0061976Y0084606D01*
X0061795Y0084920D01*
X0061481Y0085101D01*
X0061300Y0085125D01*
X0003800Y0085125D01*
X0003619Y0085101D01*
X0003305Y0084920D01*
X0003124Y0084606D01*
X0003100Y0084425D01*
X0003100Y0003800D01*
X0003124Y0003619D01*
X0003114Y0003694D02*
X0061986Y0003694D01*
X0062000Y0004293D02*
X0003100Y0004293D01*
X0003100Y0004891D02*
X0062000Y0004891D01*
X0062000Y0005490D02*
X0060736Y0005490D01*
X0060671Y0005425D02*
X0061550Y0006304D01*
X0061550Y0017546D01*
X0060671Y0018425D01*
X0059450Y0018425D01*
X0059450Y0020837D01*
X0054250Y0026037D01*
X0054250Y0026887D01*
X0053801Y0027971D01*
X0052971Y0028801D01*
X0051887Y0029250D01*
X0050713Y0029250D01*
X0049629Y0028801D01*
X0048799Y0027971D01*
X0048350Y0026887D01*
X0048350Y0025713D01*
X0048799Y0024629D01*
X0049629Y0023799D01*
X0050713Y0023350D01*
X0051563Y0023350D01*
X0055650Y0019263D01*
X0055650Y0018425D01*
X0054429Y0018425D01*
X0053550Y0017546D01*
X0053550Y0006304D01*
X0054429Y0005425D01*
X0060671Y0005425D01*
X0061334Y0006088D02*
X0062000Y0006088D01*
X0062000Y0006687D02*
X0061550Y0006687D01*
X0061550Y0007285D02*
X0062000Y0007285D01*
X0062000Y0007884D02*
X0061550Y0007884D01*
X0061550Y0008482D02*
X0062000Y0008482D01*
X0062000Y0009081D02*
X0061550Y0009081D01*
X0061550Y0009679D02*
X0062000Y0009679D01*
X0062000Y0010278D02*
X0061550Y0010278D01*
X0061550Y0010876D02*
X0062000Y0010876D01*
X0062000Y0011475D02*
X0061550Y0011475D01*
X0061550Y0012073D02*
X0062000Y0012073D01*
X0062000Y0012672D02*
X0061550Y0012672D01*
X0061550Y0013270D02*
X0062000Y0013270D01*
X0062000Y0013869D02*
X0061550Y0013869D01*
X0061550Y0014467D02*
X0062000Y0014467D01*
X0062000Y0015066D02*
X0061550Y0015066D01*
X0061550Y0015664D02*
X0062000Y0015664D01*
X0062000Y0016263D02*
X0061550Y0016263D01*
X0061550Y0016861D02*
X0062000Y0016861D01*
X0062000Y0017460D02*
X0061550Y0017460D01*
X0062000Y0018058D02*
X0061038Y0018058D01*
X0062000Y0018657D02*
X0059450Y0018657D01*
X0059450Y0019255D02*
X0062000Y0019255D01*
X0062000Y0019854D02*
X0059450Y0019854D01*
X0059450Y0020452D02*
X0062000Y0020452D01*
X0062000Y0021051D02*
X0059236Y0021051D01*
X0058638Y0021649D02*
X0062000Y0021649D01*
X0062000Y0022248D02*
X0058039Y0022248D01*
X0057441Y0022846D02*
X0062000Y0022846D01*
X0062000Y0023445D02*
X0056842Y0023445D01*
X0056244Y0024043D02*
X0062000Y0024043D01*
X0062000Y0024642D02*
X0055645Y0024642D01*
X0055047Y0025240D02*
X0062000Y0025240D01*
X0062000Y0025839D02*
X0054448Y0025839D01*
X0054250Y0026437D02*
X0062000Y0026437D01*
X0062000Y0027036D02*
X0054188Y0027036D01*
X0053940Y0027634D02*
X0062000Y0027634D01*
X0062000Y0028233D02*
X0053539Y0028233D01*
X0052897Y0028832D02*
X0062000Y0028832D01*
X0062000Y0029430D02*
X0015486Y0029430D01*
X0015500Y0029463D02*
X0015500Y0030637D01*
X0015051Y0031721D01*
X0014221Y0032551D01*
X0013137Y0033000D01*
X0011963Y0033000D01*
X0010879Y0032551D01*
X0010049Y0031721D01*
X0009600Y0030637D01*
X0009600Y0029463D01*
X0010049Y0028379D01*
X0010428Y0028000D01*
X0009463Y0028000D01*
X0008379Y0027551D01*
X0007549Y0026721D01*
X0007100Y0025637D01*
X0007100Y0024463D01*
X0007549Y0023379D01*
X0008250Y0022678D01*
X0008250Y0019304D01*
X0009329Y0018225D01*
X0007850Y0018225D01*
X0007850Y0012225D01*
X0011350Y0012225D01*
X0011350Y0017000D01*
X0016050Y0017000D01*
X0016050Y0006304D01*
X0016929Y0005425D01*
X0023171Y0005425D01*
X0024050Y0006304D01*
X0024050Y0017546D01*
X0023171Y0018425D01*
X0021721Y0018425D01*
X0020796Y0019350D01*
X0020646Y0019500D01*
X0030554Y0019500D01*
X0030750Y0019304D01*
X0030750Y0018425D01*
X0029429Y0018425D01*
X0028550Y0017546D01*
X0028550Y0006304D01*
X0029429Y0005425D01*
X0035671Y0005425D01*
X0036550Y0006304D01*
X0036550Y0017546D01*
X0035671Y0018425D01*
X0034350Y0018425D01*
X0034350Y0020796D01*
X0033296Y0021850D01*
X0032046Y0023100D01*
X0017272Y0023100D01*
X0017422Y0023250D01*
X0043054Y0023250D01*
X0043250Y0023054D01*
X0043250Y0018425D01*
X0041929Y0018425D01*
X0041050Y0017546D01*
X0041050Y0006304D01*
X0041929Y0005425D01*
X0048171Y0005425D01*
X0049050Y0006304D01*
X0049050Y0017546D01*
X0048171Y0018425D01*
X0046850Y0018425D01*
X0046850Y0024546D01*
X0045796Y0025600D01*
X0044546Y0026850D01*
X0017422Y0026850D01*
X0016721Y0027551D01*
X0015637Y0028000D01*
X0014672Y0028000D01*
X0015051Y0028379D01*
X0015500Y0029463D01*
X0015500Y0030029D02*
X0062000Y0030029D01*
X0062000Y0030627D02*
X0015500Y0030627D01*
X0015256Y0031226D02*
X0023903Y0031226D01*
X0024079Y0031050D02*
X0027821Y0031050D01*
X0031021Y0031050D01*
X0031900Y0031929D01*
X0031900Y0032256D01*
X0032276Y0032100D01*
X0033449Y0032100D01*
X0034534Y0032549D01*
X0034775Y0032791D01*
X0035049Y0032129D01*
X0035879Y0031299D01*
X0036963Y0030850D01*
X0038137Y0030850D01*
X0039221Y0031299D01*
X0040051Y0032129D01*
X0040500Y0033213D01*
X0040500Y0034387D01*
X0040349Y0034751D01*
X0040713Y0034600D01*
X0041887Y0034600D01*
X0042971Y0035049D01*
X0043801Y0035879D01*
X0044250Y0036963D01*
X0044250Y0038137D01*
X0043801Y0039221D01*
X0042971Y0040051D01*
X0041887Y0040500D01*
X0040896Y0040500D01*
X0040264Y0041132D01*
X0040530Y0041774D01*
X0041794Y0041250D01*
X0043306Y0041250D01*
X0044703Y0041829D01*
X0045771Y0042897D01*
X0046350Y0044294D01*
X0046350Y0045806D01*
X0045771Y0047203D01*
X0044703Y0048271D01*
X0043306Y0048850D01*
X0041794Y0048850D01*
X0040397Y0048271D01*
X0040326Y0048200D01*
X0040290Y0048381D01*
X0040076Y0048900D01*
X0039764Y0049367D01*
X0039367Y0049764D01*
X0038900Y0050076D01*
X0038381Y0050290D01*
X0037850Y0050396D01*
X0037850Y0047850D01*
X0037250Y0047850D01*
X0037250Y0050396D01*
X0036719Y0050290D01*
X0036200Y0050076D01*
X0035733Y0049764D01*
X0035336Y0049367D01*
X0035190Y0049147D01*
X0035136Y0049278D01*
X0034293Y0050121D01*
X0035051Y0050879D01*
X0035500Y0051963D01*
X0035500Y0053137D01*
X0035051Y0054221D01*
X0034221Y0055051D01*
X0033137Y0055500D01*
X0031963Y0055500D01*
X0030879Y0055051D01*
X0030049Y0054221D01*
X0029867Y0053780D01*
X0029221Y0054426D01*
X0028137Y0054875D01*
X0026963Y0054875D01*
X0025879Y0054426D01*
X0025049Y0053596D01*
X0024600Y0052512D01*
X0024600Y0052314D01*
X0023306Y0052850D01*
X0021794Y0052850D01*
X0020397Y0052271D01*
X0019329Y0051203D01*
X0018750Y0049806D01*
X0018750Y0048294D01*
X0019329Y0046897D01*
X0020397Y0045829D01*
X0021794Y0045250D01*
X0023306Y0045250D01*
X0024703Y0045829D01*
X0024886Y0046012D01*
X0024964Y0045822D01*
X0025737Y0045050D01*
X0024964Y0044278D01*
X0024886Y0044088D01*
X0024703Y0044271D01*
X0023306Y0044850D01*
X0021794Y0044850D01*
X0020397Y0044271D01*
X0019329Y0043203D01*
X0018750Y0041806D01*
X0018750Y0040294D01*
X0019329Y0038897D01*
X0020397Y0037829D01*
X0020817Y0037655D01*
X0020566Y0037551D01*
X0019737Y0036721D01*
X0019288Y0035637D01*
X0019288Y0034463D01*
X0019737Y0033379D01*
X0020566Y0032549D01*
X0021651Y0032100D01*
X0022824Y0032100D01*
X0023200Y0032256D01*
X0023200Y0031929D01*
X0024079Y0031050D01*
X0023305Y0031824D02*
X0014948Y0031824D01*
X0014349Y0032423D02*
X0020872Y0032423D01*
X0020094Y0033021D02*
X0003100Y0033021D01*
X0003100Y0032423D02*
X0010751Y0032423D01*
X0010152Y0031824D02*
X0003100Y0031824D01*
X0003100Y0031226D02*
X0009844Y0031226D01*
X0009600Y0030627D02*
X0003100Y0030627D01*
X0003100Y0030029D02*
X0009600Y0030029D01*
X0009614Y0029430D02*
X0003100Y0029430D01*
X0003100Y0028832D02*
X0009862Y0028832D01*
X0010195Y0028233D02*
X0003100Y0028233D01*
X0003100Y0027634D02*
X0008581Y0027634D01*
X0007864Y0027036D02*
X0003100Y0027036D01*
X0003100Y0026437D02*
X0007432Y0026437D01*
X0007184Y0025839D02*
X0003100Y0025839D01*
X0003100Y0025240D02*
X0007100Y0025240D01*
X0007100Y0024642D02*
X0003100Y0024642D01*
X0003100Y0024043D02*
X0007274Y0024043D01*
X0007522Y0023445D02*
X0003100Y0023445D01*
X0003100Y0022846D02*
X0008082Y0022846D01*
X0008250Y0022248D02*
X0003100Y0022248D01*
X0003100Y0021649D02*
X0008250Y0021649D01*
X0008250Y0021051D02*
X0003100Y0021051D01*
X0003100Y0020452D02*
X0008250Y0020452D01*
X0008250Y0019854D02*
X0003100Y0019854D01*
X0003100Y0019255D02*
X0008299Y0019255D01*
X0008898Y0018657D02*
X0003100Y0018657D01*
X0003100Y0018058D02*
X0004413Y0018058D01*
X0004548Y0018136D02*
X0004252Y0017965D01*
X0004010Y0017723D01*
X0003839Y0017427D01*
X0003750Y0017096D01*
X0003750Y0012225D01*
X0007250Y0012225D01*
X0007250Y0018225D01*
X0004879Y0018225D01*
X0004548Y0018136D01*
X0003858Y0017460D02*
X0003100Y0017460D01*
X0003100Y0016861D02*
X0003750Y0016861D01*
X0003750Y0016263D02*
X0003100Y0016263D01*
X0003100Y0015664D02*
X0003750Y0015664D01*
X0003750Y0015066D02*
X0003100Y0015066D01*
X0003100Y0014467D02*
X0003750Y0014467D01*
X0003750Y0013869D02*
X0003100Y0013869D01*
X0003100Y0013270D02*
X0003750Y0013270D01*
X0003750Y0012672D02*
X0003100Y0012672D01*
X0003100Y0012073D02*
X0007250Y0012073D01*
X0007250Y0012225D02*
X0007250Y0011625D01*
X0007850Y0011625D01*
X0007850Y0012225D01*
X0007250Y0012225D01*
X0007250Y0012672D02*
X0007850Y0012672D01*
X0007850Y0013270D02*
X0007250Y0013270D01*
X0007250Y0013869D02*
X0007850Y0013869D01*
X0007850Y0014467D02*
X0007250Y0014467D01*
X0007250Y0015066D02*
X0007850Y0015066D01*
X0007850Y0015664D02*
X0007250Y0015664D01*
X0007250Y0016263D02*
X0007850Y0016263D01*
X0007850Y0016861D02*
X0007250Y0016861D01*
X0007250Y0017460D02*
X0007850Y0017460D01*
X0007850Y0018058D02*
X0007250Y0018058D01*
X0010050Y0020050D02*
X0011300Y0018800D01*
X0018800Y0018800D01*
X0020050Y0017550D01*
X0020050Y0011925D01*
X0024050Y0012073D02*
X0028550Y0012073D01*
X0028550Y0011475D02*
X0024050Y0011475D01*
X0024050Y0010876D02*
X0028550Y0010876D01*
X0028550Y0010278D02*
X0024050Y0010278D01*
X0024050Y0009679D02*
X0028550Y0009679D01*
X0028550Y0009081D02*
X0024050Y0009081D01*
X0024050Y0008482D02*
X0028550Y0008482D01*
X0028550Y0007884D02*
X0024050Y0007884D01*
X0024050Y0007285D02*
X0028550Y0007285D01*
X0028550Y0006687D02*
X0024050Y0006687D01*
X0023834Y0006088D02*
X0028766Y0006088D01*
X0029364Y0005490D02*
X0023236Y0005490D01*
X0024050Y0012672D02*
X0028550Y0012672D01*
X0028550Y0013270D02*
X0024050Y0013270D01*
X0024050Y0013869D02*
X0028550Y0013869D01*
X0028550Y0014467D02*
X0024050Y0014467D01*
X0024050Y0015066D02*
X0028550Y0015066D01*
X0028550Y0015664D02*
X0024050Y0015664D01*
X0024050Y0016263D02*
X0028550Y0016263D01*
X0028550Y0016861D02*
X0024050Y0016861D01*
X0024050Y0017460D02*
X0028550Y0017460D01*
X0029062Y0018058D02*
X0023538Y0018058D01*
X0021489Y0018657D02*
X0030750Y0018657D01*
X0030750Y0019255D02*
X0020890Y0019255D01*
X0016050Y0016861D02*
X0011350Y0016861D01*
X0011350Y0016263D02*
X0016050Y0016263D01*
X0016050Y0015664D02*
X0011350Y0015664D01*
X0011350Y0015066D02*
X0016050Y0015066D01*
X0016050Y0014467D02*
X0011350Y0014467D01*
X0011350Y0013869D02*
X0016050Y0013869D01*
X0016050Y0013270D02*
X0011350Y0013270D01*
X0011350Y0012672D02*
X0016050Y0012672D01*
X0016050Y0012073D02*
X0007850Y0012073D01*
X0007850Y0011625D02*
X0011350Y0011625D01*
X0011350Y0006754D01*
X0011261Y0006423D01*
X0011090Y0006127D01*
X0010848Y0005885D01*
X0010552Y0005714D01*
X0010221Y0005625D01*
X0007850Y0005625D01*
X0007850Y0011625D01*
X0007850Y0011475D02*
X0007250Y0011475D01*
X0007250Y0011625D02*
X0007250Y0005625D01*
X0004879Y0005625D01*
X0004548Y0005714D01*
X0004252Y0005885D01*
X0004010Y0006127D01*
X0003839Y0006423D01*
X0003750Y0006754D01*
X0003750Y0011625D01*
X0007250Y0011625D01*
X0007250Y0010876D02*
X0007850Y0010876D01*
X0007850Y0010278D02*
X0007250Y0010278D01*
X0007250Y0009679D02*
X0007850Y0009679D01*
X0007850Y0009081D02*
X0007250Y0009081D01*
X0007250Y0008482D02*
X0007850Y0008482D01*
X0007850Y0007884D02*
X0007250Y0007884D01*
X0007250Y0007285D02*
X0007850Y0007285D01*
X0007850Y0006687D02*
X0007250Y0006687D01*
X0007250Y0006088D02*
X0007850Y0006088D01*
X0011052Y0006088D02*
X0016266Y0006088D01*
X0016050Y0006687D02*
X0011332Y0006687D01*
X0011350Y0007285D02*
X0016050Y0007285D01*
X0016050Y0007884D02*
X0011350Y0007884D01*
X0011350Y0008482D02*
X0016050Y0008482D01*
X0016050Y0009081D02*
X0011350Y0009081D01*
X0011350Y0009679D02*
X0016050Y0009679D01*
X0016050Y0010278D02*
X0011350Y0010278D01*
X0011350Y0010876D02*
X0016050Y0010876D01*
X0016050Y0011475D02*
X0011350Y0011475D01*
X0016864Y0005490D02*
X0003100Y0005490D01*
X0003100Y0006088D02*
X0004048Y0006088D01*
X0003768Y0006687D02*
X0003100Y0006687D01*
X0003100Y0007285D02*
X0003750Y0007285D01*
X0003750Y0007884D02*
X0003100Y0007884D01*
X0003100Y0008482D02*
X0003750Y0008482D01*
X0003750Y0009081D02*
X0003100Y0009081D01*
X0003100Y0009679D02*
X0003750Y0009679D01*
X0003750Y0010278D02*
X0003100Y0010278D01*
X0003100Y0010876D02*
X0003750Y0010876D01*
X0003750Y0011475D02*
X0003100Y0011475D01*
X0010050Y0020050D02*
X0010050Y0025050D01*
X0012550Y0022550D02*
X0013800Y0021300D01*
X0031300Y0021300D01*
X0032550Y0020050D01*
X0032550Y0011925D01*
X0036550Y0012073D02*
X0041050Y0012073D01*
X0041050Y0011475D02*
X0036550Y0011475D01*
X0036550Y0010876D02*
X0041050Y0010876D01*
X0041050Y0010278D02*
X0036550Y0010278D01*
X0036550Y0009679D02*
X0041050Y0009679D01*
X0041050Y0009081D02*
X0036550Y0009081D01*
X0036550Y0008482D02*
X0041050Y0008482D01*
X0041050Y0007884D02*
X0036550Y0007884D01*
X0036550Y0007285D02*
X0041050Y0007285D01*
X0041050Y0006687D02*
X0036550Y0006687D01*
X0036334Y0006088D02*
X0041266Y0006088D01*
X0041864Y0005490D02*
X0035736Y0005490D01*
X0036550Y0012672D02*
X0041050Y0012672D01*
X0041050Y0013270D02*
X0036550Y0013270D01*
X0036550Y0013869D02*
X0041050Y0013869D01*
X0041050Y0014467D02*
X0036550Y0014467D01*
X0036550Y0015066D02*
X0041050Y0015066D01*
X0041050Y0015664D02*
X0036550Y0015664D01*
X0036550Y0016263D02*
X0041050Y0016263D01*
X0041050Y0016861D02*
X0036550Y0016861D01*
X0036550Y0017460D02*
X0041050Y0017460D01*
X0041562Y0018058D02*
X0036038Y0018058D01*
X0034350Y0018657D02*
X0043250Y0018657D01*
X0043250Y0019255D02*
X0034350Y0019255D01*
X0034350Y0019854D02*
X0043250Y0019854D01*
X0043250Y0020452D02*
X0034350Y0020452D01*
X0034095Y0021051D02*
X0043250Y0021051D01*
X0043250Y0021649D02*
X0033496Y0021649D01*
X0032898Y0022248D02*
X0043250Y0022248D01*
X0043250Y0022846D02*
X0032299Y0022846D01*
X0031197Y0031226D02*
X0036057Y0031226D01*
X0035354Y0031824D02*
X0031795Y0031824D01*
X0032863Y0035050D02*
X0029150Y0035050D01*
X0025950Y0035050D02*
X0022237Y0035050D01*
X0020226Y0037211D02*
X0003100Y0037211D01*
X0003100Y0037809D02*
X0020444Y0037809D01*
X0019818Y0038408D02*
X0003100Y0038408D01*
X0003100Y0039006D02*
X0019283Y0039006D01*
X0019036Y0039605D02*
X0003100Y0039605D01*
X0003100Y0040203D02*
X0018788Y0040203D01*
X0018750Y0040802D02*
X0003100Y0040802D01*
X0003100Y0041400D02*
X0018750Y0041400D01*
X0018830Y0041999D02*
X0003100Y0041999D01*
X0003100Y0042597D02*
X0019078Y0042597D01*
X0019326Y0043196D02*
X0003100Y0043196D01*
X0003100Y0043794D02*
X0019920Y0043794D01*
X0020690Y0044393D02*
X0003100Y0044393D01*
X0003100Y0044991D02*
X0025678Y0044991D01*
X0025197Y0045590D02*
X0024126Y0045590D01*
X0024410Y0044393D02*
X0025079Y0044393D01*
X0027550Y0042550D02*
X0030050Y0045050D01*
X0030050Y0050050D01*
X0032550Y0052550D01*
X0034704Y0054568D02*
X0062000Y0054568D01*
X0062000Y0055166D02*
X0033943Y0055166D01*
X0035155Y0053969D02*
X0062000Y0053969D01*
X0062000Y0053370D02*
X0035403Y0053370D01*
X0035500Y0052772D02*
X0062000Y0052772D01*
X0062000Y0052173D02*
X0035500Y0052173D01*
X0035339Y0051575D02*
X0062000Y0051575D01*
X0062000Y0050976D02*
X0035091Y0050976D01*
X0034550Y0050378D02*
X0037158Y0050378D01*
X0037250Y0050378D02*
X0037850Y0050378D01*
X0037942Y0050378D02*
X0062000Y0050378D01*
X0062000Y0049779D02*
X0039343Y0049779D01*
X0039888Y0049181D02*
X0062000Y0049181D01*
X0062000Y0048582D02*
X0043952Y0048582D01*
X0044990Y0047984D02*
X0062000Y0047984D01*
X0062000Y0047385D02*
X0045589Y0047385D01*
X0045944Y0046787D02*
X0062000Y0046787D01*
X0062000Y0046188D02*
X0046192Y0046188D01*
X0046350Y0045590D02*
X0062000Y0045590D01*
X0062000Y0044991D02*
X0046350Y0044991D01*
X0046350Y0044393D02*
X0062000Y0044393D01*
X0062000Y0043794D02*
X0046143Y0043794D01*
X0045895Y0043196D02*
X0062000Y0043196D01*
X0062000Y0042597D02*
X0045471Y0042597D01*
X0044873Y0041999D02*
X0062000Y0041999D01*
X0062000Y0041400D02*
X0043669Y0041400D01*
X0042603Y0040203D02*
X0062000Y0040203D01*
X0062000Y0039605D02*
X0043417Y0039605D01*
X0043890Y0039006D02*
X0062000Y0039006D01*
X0062000Y0038408D02*
X0044138Y0038408D01*
X0044250Y0037809D02*
X0062000Y0037809D01*
X0062000Y0037211D02*
X0044250Y0037211D01*
X0044105Y0036612D02*
X0062000Y0036612D01*
X0062000Y0036014D02*
X0043857Y0036014D01*
X0043337Y0035415D02*
X0062000Y0035415D01*
X0062000Y0034817D02*
X0042410Y0034817D01*
X0040500Y0034218D02*
X0062000Y0034218D01*
X0062000Y0033620D02*
X0040500Y0033620D01*
X0040420Y0033021D02*
X0062000Y0033021D01*
X0062000Y0032423D02*
X0040173Y0032423D01*
X0039746Y0031824D02*
X0062000Y0031824D01*
X0062000Y0031226D02*
X0039043Y0031226D01*
X0037550Y0033800D02*
X0032550Y0038800D01*
X0032550Y0042550D01*
X0035050Y0040050D02*
X0037550Y0037550D01*
X0035050Y0040050D02*
X0035050Y0045050D01*
X0032550Y0047550D01*
X0034634Y0049779D02*
X0035757Y0049779D01*
X0035212Y0049181D02*
X0035176Y0049181D01*
X0037250Y0049181D02*
X0037850Y0049181D01*
X0037850Y0049779D02*
X0037250Y0049779D01*
X0037250Y0048582D02*
X0037850Y0048582D01*
X0037850Y0047984D02*
X0037250Y0047984D01*
X0040207Y0048582D02*
X0041148Y0048582D01*
X0037550Y0042550D02*
X0037550Y0041300D01*
X0041300Y0037550D01*
X0040594Y0040802D02*
X0062000Y0040802D01*
X0062000Y0055765D02*
X0011850Y0055765D01*
X0011850Y0056363D02*
X0062000Y0056363D01*
X0062000Y0056962D02*
X0011850Y0056962D01*
X0011850Y0057546D02*
X0010500Y0058896D01*
X0010500Y0059887D01*
X0010051Y0060971D01*
X0009221Y0061801D01*
X0008137Y0062250D01*
X0006963Y0062250D01*
X0005879Y0061801D01*
X0005049Y0060971D01*
X0004600Y0059887D01*
X0004600Y0058713D01*
X0005049Y0057629D01*
X0005879Y0056799D01*
X0006963Y0056350D01*
X0007954Y0056350D01*
X0008250Y0056054D01*
X0008250Y0052422D01*
X0007549Y0051721D01*
X0007100Y0050637D01*
X0007100Y0049463D01*
X0007549Y0048379D01*
X0008379Y0047549D01*
X0009463Y0047100D01*
X0010637Y0047100D01*
X0011721Y0047549D01*
X0012551Y0048379D01*
X0013000Y0049463D01*
X0013000Y0050637D01*
X0012551Y0051721D01*
X0011850Y0052422D01*
X0011850Y0057546D01*
X0011836Y0057560D02*
X0062000Y0057560D01*
X0062000Y0058159D02*
X0011237Y0058159D01*
X0010638Y0058757D02*
X0062000Y0058757D01*
X0062000Y0059356D02*
X0010500Y0059356D01*
X0010472Y0059954D02*
X0062000Y0059954D01*
X0062000Y0060553D02*
X0010224Y0060553D01*
X0009871Y0061151D02*
X0062000Y0061151D01*
X0062000Y0061750D02*
X0009272Y0061750D01*
X0007550Y0059300D02*
X0010050Y0056800D01*
X0010050Y0050050D01*
X0012156Y0047984D02*
X0018878Y0047984D01*
X0018750Y0048582D02*
X0012635Y0048582D01*
X0012883Y0049181D02*
X0018750Y0049181D01*
X0018750Y0049779D02*
X0013000Y0049779D01*
X0013000Y0050378D02*
X0018987Y0050378D01*
X0019235Y0050976D02*
X0012859Y0050976D01*
X0012611Y0051575D02*
X0019701Y0051575D01*
X0020299Y0052173D02*
X0012098Y0052173D01*
X0011850Y0052772D02*
X0021606Y0052772D01*
X0023494Y0052772D02*
X0024708Y0052772D01*
X0024956Y0053370D02*
X0011850Y0053370D01*
X0011850Y0053969D02*
X0025422Y0053969D01*
X0026221Y0054568D02*
X0011850Y0054568D01*
X0011850Y0055166D02*
X0031157Y0055166D01*
X0030396Y0054568D02*
X0028879Y0054568D01*
X0029678Y0053969D02*
X0029945Y0053969D01*
X0027550Y0051925D02*
X0027550Y0047550D01*
X0020974Y0045590D02*
X0003100Y0045590D01*
X0003100Y0046188D02*
X0020038Y0046188D01*
X0019439Y0046787D02*
X0003100Y0046787D01*
X0003100Y0047385D02*
X0008774Y0047385D01*
X0007944Y0047984D02*
X0003100Y0047984D01*
X0003100Y0048582D02*
X0007465Y0048582D01*
X0007217Y0049181D02*
X0003100Y0049181D01*
X0003100Y0049779D02*
X0007100Y0049779D01*
X0007100Y0050378D02*
X0003100Y0050378D01*
X0003100Y0050976D02*
X0007241Y0050976D01*
X0007489Y0051575D02*
X0003100Y0051575D01*
X0003100Y0052173D02*
X0008002Y0052173D01*
X0008250Y0052772D02*
X0003100Y0052772D01*
X0003100Y0053370D02*
X0008250Y0053370D01*
X0008250Y0053969D02*
X0003100Y0053969D01*
X0003100Y0054568D02*
X0008250Y0054568D01*
X0008250Y0055166D02*
X0003100Y0055166D01*
X0003100Y0055765D02*
X0008250Y0055765D01*
X0006932Y0056363D02*
X0003100Y0056363D01*
X0003100Y0056962D02*
X0005717Y0056962D01*
X0005118Y0057560D02*
X0003100Y0057560D01*
X0003100Y0058159D02*
X0004830Y0058159D01*
X0004600Y0058757D02*
X0003100Y0058757D01*
X0003100Y0059356D02*
X0004600Y0059356D01*
X0004628Y0059954D02*
X0003100Y0059954D01*
X0003100Y0060553D02*
X0004876Y0060553D01*
X0005229Y0061151D02*
X0003100Y0061151D01*
X0003100Y0061750D02*
X0005828Y0061750D01*
X0003100Y0062348D02*
X0062000Y0062348D01*
X0062000Y0062947D02*
X0003100Y0062947D01*
X0003100Y0063545D02*
X0062000Y0063545D01*
X0062000Y0064144D02*
X0003100Y0064144D01*
X0003100Y0064742D02*
X0062000Y0064742D01*
X0062000Y0065341D02*
X0003100Y0065341D01*
X0003100Y0065939D02*
X0062000Y0065939D01*
X0062000Y0066538D02*
X0003100Y0066538D01*
X0003100Y0067136D02*
X0062000Y0067136D01*
X0062000Y0067735D02*
X0003100Y0067735D01*
X0003100Y0068333D02*
X0062000Y0068333D01*
X0062000Y0068932D02*
X0003100Y0068932D01*
X0003100Y0069530D02*
X0062000Y0069530D01*
X0062000Y0070129D02*
X0054750Y0070129D01*
X0054421Y0069800D02*
X0055300Y0070679D01*
X0055300Y0081921D01*
X0054421Y0082800D01*
X0048179Y0082800D01*
X0047300Y0081921D01*
X0047300Y0079000D01*
X0046240Y0079000D01*
X0045637Y0079250D01*
X0044463Y0079250D01*
X0043379Y0078801D01*
X0042800Y0078222D01*
X0042800Y0081921D01*
X0041921Y0082800D01*
X0035679Y0082800D01*
X0034800Y0081921D01*
X0034800Y0078222D01*
X0034221Y0078801D01*
X0033137Y0079250D01*
X0031963Y0079250D01*
X0030879Y0078801D01*
X0030300Y0078222D01*
X0030300Y0081921D01*
X0029421Y0082800D01*
X0023179Y0082800D01*
X0022300Y0081921D01*
X0022300Y0078222D01*
X0021721Y0078801D01*
X0020637Y0079250D01*
X0019463Y0079250D01*
X0018379Y0078801D01*
X0017800Y0078222D01*
X0017800Y0081921D01*
X0016921Y0082800D01*
X0010679Y0082800D01*
X0009800Y0081921D01*
X0009800Y0079000D01*
X0008740Y0079000D01*
X0008137Y0079250D01*
X0006963Y0079250D01*
X0005879Y0078801D01*
X0005049Y0077971D01*
X0004600Y0076887D01*
X0004600Y0075713D01*
X0005049Y0074629D01*
X0005879Y0073799D01*
X0006963Y0073350D01*
X0008137Y0073350D01*
X0008740Y0073600D01*
X0009800Y0073600D01*
X0009800Y0070679D01*
X0010679Y0069800D01*
X0016921Y0069800D01*
X0017800Y0070679D01*
X0017800Y0074378D01*
X0018379Y0073799D01*
X0019463Y0073350D01*
X0020637Y0073350D01*
X0021721Y0073799D01*
X0022300Y0074378D01*
X0022300Y0070679D01*
X0023179Y0069800D01*
X0029421Y0069800D01*
X0030300Y0070679D01*
X0030300Y0074378D01*
X0030879Y0073799D01*
X0031963Y0073350D01*
X0033137Y0073350D01*
X0034221Y0073799D01*
X0034800Y0074378D01*
X0034800Y0070679D01*
X0035679Y0069800D01*
X0041921Y0069800D01*
X0042800Y0070679D01*
X0042800Y0074378D01*
X0043379Y0073799D01*
X0044463Y0073350D01*
X0045637Y0073350D01*
X0046240Y0073600D01*
X0047300Y0073600D01*
X0047300Y0070679D01*
X0048179Y0069800D01*
X0054421Y0069800D01*
X0055300Y0070727D02*
X0062000Y0070727D01*
X0062000Y0071326D02*
X0055300Y0071326D01*
X0055300Y0071924D02*
X0062000Y0071924D01*
X0062000Y0072523D02*
X0055300Y0072523D01*
X0055300Y0073121D02*
X0062000Y0073121D01*
X0062000Y0073720D02*
X0055300Y0073720D01*
X0055300Y0074318D02*
X0062000Y0074318D01*
X0062000Y0074917D02*
X0055300Y0074917D01*
X0055300Y0075515D02*
X0062000Y0075515D01*
X0062000Y0076114D02*
X0055300Y0076114D01*
X0055300Y0076712D02*
X0062000Y0076712D01*
X0062000Y0077311D02*
X0055300Y0077311D01*
X0055300Y0077909D02*
X0062000Y0077909D01*
X0062000Y0078508D02*
X0055300Y0078508D01*
X0055300Y0079106D02*
X0062000Y0079106D01*
X0062000Y0079705D02*
X0055300Y0079705D01*
X0055300Y0080303D02*
X0062000Y0080303D01*
X0062000Y0080902D02*
X0055300Y0080902D01*
X0055300Y0081501D02*
X0062000Y0081501D01*
X0062000Y0082099D02*
X0055122Y0082099D01*
X0054524Y0082698D02*
X0062000Y0082698D01*
X0062000Y0083296D02*
X0003100Y0083296D01*
X0003100Y0082698D02*
X0010576Y0082698D01*
X0009978Y0082099D02*
X0003100Y0082099D01*
X0003100Y0081501D02*
X0009800Y0081501D01*
X0009800Y0080902D02*
X0003100Y0080902D01*
X0003100Y0080303D02*
X0009800Y0080303D01*
X0009800Y0079705D02*
X0003100Y0079705D01*
X0003100Y0079106D02*
X0006617Y0079106D01*
X0005586Y0078508D02*
X0003100Y0078508D01*
X0003100Y0077909D02*
X0005024Y0077909D01*
X0004776Y0077311D02*
X0003100Y0077311D01*
X0003100Y0076712D02*
X0004600Y0076712D01*
X0004600Y0076114D02*
X0003100Y0076114D01*
X0003100Y0075515D02*
X0004682Y0075515D01*
X0004930Y0074917D02*
X0003100Y0074917D01*
X0003100Y0074318D02*
X0005360Y0074318D01*
X0006070Y0073720D02*
X0003100Y0073720D01*
X0003100Y0073121D02*
X0009800Y0073121D01*
X0009800Y0072523D02*
X0003100Y0072523D01*
X0003100Y0071924D02*
X0009800Y0071924D01*
X0009800Y0071326D02*
X0003100Y0071326D01*
X0003100Y0070727D02*
X0009800Y0070727D01*
X0010350Y0070129D02*
X0003100Y0070129D01*
X0008483Y0079106D02*
X0009800Y0079106D01*
X0003602Y0085092D02*
X0061498Y0085092D01*
X0061991Y0084493D02*
X0003109Y0084493D01*
X0003100Y0083895D02*
X0062000Y0083895D01*
X0048076Y0082698D02*
X0042024Y0082698D01*
X0042622Y0082099D02*
X0047478Y0082099D01*
X0047300Y0081501D02*
X0042800Y0081501D01*
X0042800Y0080902D02*
X0047300Y0080902D01*
X0047300Y0080303D02*
X0042800Y0080303D01*
X0042800Y0079705D02*
X0047300Y0079705D01*
X0047300Y0079106D02*
X0045983Y0079106D01*
X0044117Y0079106D02*
X0042800Y0079106D01*
X0042800Y0078508D02*
X0043086Y0078508D01*
X0042860Y0074318D02*
X0042800Y0074318D01*
X0042800Y0073720D02*
X0043570Y0073720D01*
X0042800Y0073121D02*
X0047300Y0073121D01*
X0047300Y0072523D02*
X0042800Y0072523D01*
X0042800Y0071924D02*
X0047300Y0071924D01*
X0047300Y0071326D02*
X0042800Y0071326D01*
X0042800Y0070727D02*
X0047300Y0070727D01*
X0047850Y0070129D02*
X0042250Y0070129D01*
X0038800Y0076300D02*
X0032550Y0076300D01*
X0034740Y0074318D02*
X0034800Y0074318D01*
X0034800Y0073720D02*
X0034030Y0073720D01*
X0034800Y0073121D02*
X0030300Y0073121D01*
X0030300Y0072523D02*
X0034800Y0072523D01*
X0034800Y0071924D02*
X0030300Y0071924D01*
X0030300Y0071326D02*
X0034800Y0071326D01*
X0034800Y0070727D02*
X0030300Y0070727D01*
X0029750Y0070129D02*
X0035350Y0070129D01*
X0031070Y0073720D02*
X0030300Y0073720D01*
X0030300Y0074318D02*
X0030360Y0074318D01*
X0030300Y0078508D02*
X0030586Y0078508D01*
X0030300Y0079106D02*
X0031617Y0079106D01*
X0030300Y0079705D02*
X0034800Y0079705D01*
X0034800Y0080303D02*
X0030300Y0080303D01*
X0030300Y0080902D02*
X0034800Y0080902D01*
X0034800Y0081501D02*
X0030300Y0081501D01*
X0030122Y0082099D02*
X0034978Y0082099D01*
X0035576Y0082698D02*
X0029524Y0082698D01*
X0033483Y0079106D02*
X0034800Y0079106D01*
X0034800Y0078508D02*
X0034514Y0078508D01*
X0026300Y0076300D02*
X0020050Y0076300D01*
X0017860Y0074318D02*
X0017800Y0074318D01*
X0017800Y0073720D02*
X0018570Y0073720D01*
X0017800Y0073121D02*
X0022300Y0073121D01*
X0022300Y0072523D02*
X0017800Y0072523D01*
X0017800Y0071924D02*
X0022300Y0071924D01*
X0022300Y0071326D02*
X0017800Y0071326D01*
X0017800Y0070727D02*
X0022300Y0070727D01*
X0022850Y0070129D02*
X0017250Y0070129D01*
X0021530Y0073720D02*
X0022300Y0073720D01*
X0022300Y0074318D02*
X0022240Y0074318D01*
X0022300Y0078508D02*
X0022014Y0078508D01*
X0022300Y0079106D02*
X0020983Y0079106D01*
X0022300Y0079705D02*
X0017800Y0079705D01*
X0017800Y0080303D02*
X0022300Y0080303D01*
X0022300Y0080902D02*
X0017800Y0080902D01*
X0017800Y0081501D02*
X0022300Y0081501D01*
X0022478Y0082099D02*
X0017622Y0082099D01*
X0017024Y0082698D02*
X0023076Y0082698D01*
X0019117Y0079106D02*
X0017800Y0079106D01*
X0017800Y0078508D02*
X0018086Y0078508D01*
X0019126Y0047385D02*
X0011326Y0047385D01*
X0003100Y0036612D02*
X0019692Y0036612D01*
X0019444Y0036014D02*
X0003100Y0036014D01*
X0003100Y0035415D02*
X0019288Y0035415D01*
X0019288Y0034817D02*
X0003100Y0034817D01*
X0003100Y0034218D02*
X0019389Y0034218D01*
X0019637Y0033620D02*
X0003100Y0033620D01*
X0012550Y0030050D02*
X0012550Y0022550D01*
X0015050Y0025050D02*
X0043800Y0025050D01*
X0045050Y0023800D01*
X0045050Y0011925D01*
X0049050Y0012073D02*
X0053550Y0012073D01*
X0053550Y0011475D02*
X0049050Y0011475D01*
X0049050Y0010876D02*
X0053550Y0010876D01*
X0053550Y0010278D02*
X0049050Y0010278D01*
X0049050Y0009679D02*
X0053550Y0009679D01*
X0053550Y0009081D02*
X0049050Y0009081D01*
X0049050Y0008482D02*
X0053550Y0008482D01*
X0053550Y0007884D02*
X0049050Y0007884D01*
X0049050Y0007285D02*
X0053550Y0007285D01*
X0053550Y0006687D02*
X0049050Y0006687D01*
X0048834Y0006088D02*
X0053766Y0006088D01*
X0054364Y0005490D02*
X0048236Y0005490D01*
X0049050Y0012672D02*
X0053550Y0012672D01*
X0053550Y0013270D02*
X0049050Y0013270D01*
X0049050Y0013869D02*
X0053550Y0013869D01*
X0053550Y0014467D02*
X0049050Y0014467D01*
X0049050Y0015066D02*
X0053550Y0015066D01*
X0053550Y0015664D02*
X0049050Y0015664D01*
X0049050Y0016263D02*
X0053550Y0016263D01*
X0053550Y0016861D02*
X0049050Y0016861D01*
X0049050Y0017460D02*
X0053550Y0017460D01*
X0054062Y0018058D02*
X0048538Y0018058D01*
X0046850Y0018657D02*
X0055650Y0018657D01*
X0055650Y0019255D02*
X0046850Y0019255D01*
X0046850Y0019854D02*
X0055059Y0019854D01*
X0054461Y0020452D02*
X0046850Y0020452D01*
X0046850Y0021051D02*
X0053862Y0021051D01*
X0053264Y0021649D02*
X0046850Y0021649D01*
X0046850Y0022248D02*
X0052665Y0022248D01*
X0052067Y0022846D02*
X0046850Y0022846D01*
X0046850Y0023445D02*
X0050484Y0023445D01*
X0049385Y0024043D02*
X0046850Y0024043D01*
X0046754Y0024642D02*
X0048794Y0024642D01*
X0048546Y0025240D02*
X0046155Y0025240D01*
X0045557Y0025839D02*
X0048350Y0025839D01*
X0048350Y0026437D02*
X0044958Y0026437D01*
X0048412Y0027036D02*
X0017236Y0027036D01*
X0016519Y0027634D02*
X0048660Y0027634D01*
X0049061Y0028233D02*
X0014905Y0028233D01*
X0015238Y0028832D02*
X0049703Y0028832D01*
X0041431Y0041400D02*
X0040375Y0041400D01*
X0034927Y0032423D02*
X0034228Y0032423D01*
D14*
X0032863Y0035050D03*
X0037550Y0033800D03*
X0037550Y0037550D03*
X0041300Y0037550D03*
X0051300Y0026300D03*
X0032550Y0052550D03*
X0027550Y0051925D03*
X0022237Y0035050D03*
X0015050Y0025050D03*
X0012550Y0030050D03*
X0010050Y0025050D03*
X0010050Y0045050D03*
X0010050Y0050050D03*
X0007550Y0059300D03*
X0013593Y0061750D03*
X0007550Y0076300D03*
X0020050Y0076300D03*
X0032550Y0076300D03*
X0045050Y0076300D03*
D15*
X0051300Y0076300D01*
X0013800Y0076300D02*
X0007550Y0076300D01*
D16*
X0051300Y0026300D02*
X0057550Y0020050D01*
X0057550Y0011925D01*
M02*
