G75*
%MOIN*%
%OFA0B0*%
%FSLAX25Y25*%
%IPPOS*%
%LPD*%
%AMOC8*
5,1,8,0,0,1.08239X$1,22.5*
%
%ADD10R,0.06500X0.32500*%
%ADD11C,0.00600*%
%ADD12C,0.00200*%
%ADD13C,0.00500*%
%ADD14C,0.00300*%
D10*
X0058050Y0043800D03*
D11*
X0010188Y0013731D02*
X0010188Y0011369D01*
X0014912Y0011369D02*
X0014912Y0013731D01*
X0018250Y0030750D02*
X0018250Y0031750D01*
X0018250Y0030750D02*
X0019250Y0030750D01*
X0021550Y0055050D02*
X0021552Y0055113D01*
X0021558Y0055175D01*
X0021568Y0055237D01*
X0021581Y0055299D01*
X0021599Y0055359D01*
X0021620Y0055418D01*
X0021645Y0055476D01*
X0021674Y0055532D01*
X0021706Y0055586D01*
X0021741Y0055638D01*
X0021779Y0055687D01*
X0021821Y0055735D01*
X0021865Y0055779D01*
X0021913Y0055821D01*
X0021962Y0055859D01*
X0022014Y0055894D01*
X0022068Y0055926D01*
X0022124Y0055955D01*
X0022182Y0055980D01*
X0022241Y0056001D01*
X0022301Y0056019D01*
X0022363Y0056032D01*
X0022425Y0056042D01*
X0022487Y0056048D01*
X0022550Y0056050D01*
X0022613Y0056048D01*
X0022675Y0056042D01*
X0022737Y0056032D01*
X0022799Y0056019D01*
X0022859Y0056001D01*
X0022918Y0055980D01*
X0022976Y0055955D01*
X0023032Y0055926D01*
X0023086Y0055894D01*
X0023138Y0055859D01*
X0023187Y0055821D01*
X0023235Y0055779D01*
X0023279Y0055735D01*
X0023321Y0055687D01*
X0023359Y0055638D01*
X0023394Y0055586D01*
X0023426Y0055532D01*
X0023455Y0055476D01*
X0023480Y0055418D01*
X0023501Y0055359D01*
X0023519Y0055299D01*
X0023532Y0055237D01*
X0023542Y0055175D01*
X0023548Y0055113D01*
X0023550Y0055050D01*
X0023548Y0054987D01*
X0023542Y0054925D01*
X0023532Y0054863D01*
X0023519Y0054801D01*
X0023501Y0054741D01*
X0023480Y0054682D01*
X0023455Y0054624D01*
X0023426Y0054568D01*
X0023394Y0054514D01*
X0023359Y0054462D01*
X0023321Y0054413D01*
X0023279Y0054365D01*
X0023235Y0054321D01*
X0023187Y0054279D01*
X0023138Y0054241D01*
X0023086Y0054206D01*
X0023032Y0054174D01*
X0022976Y0054145D01*
X0022918Y0054120D01*
X0022859Y0054099D01*
X0022799Y0054081D01*
X0022737Y0054068D01*
X0022675Y0054058D01*
X0022613Y0054052D01*
X0022550Y0054050D01*
X0022487Y0054052D01*
X0022425Y0054058D01*
X0022363Y0054068D01*
X0022301Y0054081D01*
X0022241Y0054099D01*
X0022182Y0054120D01*
X0022124Y0054145D01*
X0022068Y0054174D01*
X0022014Y0054206D01*
X0021962Y0054241D01*
X0021913Y0054279D01*
X0021865Y0054321D01*
X0021821Y0054365D01*
X0021779Y0054413D01*
X0021741Y0054462D01*
X0021706Y0054514D01*
X0021674Y0054568D01*
X0021645Y0054624D01*
X0021620Y0054682D01*
X0021599Y0054741D01*
X0021581Y0054801D01*
X0021568Y0054863D01*
X0021558Y0054925D01*
X0021552Y0054987D01*
X0021550Y0055050D01*
X0018250Y0058350D02*
X0018250Y0059350D01*
X0019250Y0059350D01*
X0011231Y0063938D02*
X0008869Y0063938D01*
X0008869Y0068662D02*
X0011231Y0068662D01*
X0011438Y0075119D02*
X0011438Y0077481D01*
X0016162Y0077481D02*
X0016162Y0075119D01*
X0023938Y0075119D02*
X0023938Y0077481D01*
X0028662Y0077481D02*
X0028662Y0075119D01*
X0036438Y0075119D02*
X0036438Y0077481D01*
X0041162Y0077481D02*
X0041162Y0075119D01*
X0045850Y0059350D02*
X0046850Y0059350D01*
X0046850Y0058350D01*
X0053869Y0063938D02*
X0056231Y0063938D01*
X0056231Y0068662D02*
X0053869Y0068662D01*
X0046850Y0031750D02*
X0046850Y0030750D01*
X0045850Y0030750D01*
X0050188Y0013731D02*
X0050188Y0011369D01*
X0054912Y0011369D02*
X0054912Y0013731D01*
D12*
X0053584Y0012551D02*
X0052650Y0012551D01*
X0053351Y0013251D01*
X0053351Y0011850D01*
X0052111Y0012084D02*
X0051877Y0011850D01*
X0051410Y0011850D01*
X0051177Y0012084D01*
X0051177Y0013018D01*
X0051410Y0013251D01*
X0051877Y0013251D01*
X0052111Y0013018D01*
X0034652Y0043550D02*
X0032650Y0043550D01*
X0033651Y0043550D02*
X0033651Y0046553D01*
X0032650Y0045552D01*
X0031705Y0046553D02*
X0031705Y0044050D01*
X0031205Y0043550D01*
X0030204Y0043550D01*
X0029703Y0044050D01*
X0029703Y0046553D01*
X0010750Y0065160D02*
X0010750Y0065627D01*
X0010516Y0065861D01*
X0010750Y0066400D02*
X0010750Y0067334D01*
X0010750Y0066867D02*
X0009349Y0066867D01*
X0009816Y0066400D01*
X0009582Y0065861D02*
X0009349Y0065627D01*
X0009349Y0065160D01*
X0009582Y0064927D01*
X0010516Y0064927D01*
X0010750Y0065160D01*
X0012427Y0075600D02*
X0012427Y0077001D01*
X0013361Y0077001D01*
X0013900Y0076534D02*
X0014367Y0077001D01*
X0014367Y0075600D01*
X0013900Y0075600D02*
X0014834Y0075600D01*
X0012894Y0076301D02*
X0012427Y0076301D01*
X0024927Y0076067D02*
X0025627Y0076067D01*
X0025861Y0076301D01*
X0025861Y0076768D01*
X0025627Y0077001D01*
X0024927Y0077001D01*
X0024927Y0075600D01*
X0025394Y0076067D02*
X0025861Y0075600D01*
X0026400Y0075600D02*
X0027334Y0075600D01*
X0026867Y0075600D02*
X0026867Y0077001D01*
X0026400Y0076534D01*
X0037427Y0076067D02*
X0038127Y0076067D01*
X0038361Y0076301D01*
X0038361Y0076768D01*
X0038127Y0077001D01*
X0037427Y0077001D01*
X0037427Y0075600D01*
X0037894Y0076067D02*
X0038361Y0075600D01*
X0038900Y0075600D02*
X0039834Y0076534D01*
X0039834Y0076768D01*
X0039601Y0077001D01*
X0039134Y0077001D01*
X0038900Y0076768D01*
X0038900Y0075600D02*
X0039834Y0075600D01*
X0054349Y0067101D02*
X0054349Y0066634D01*
X0054582Y0066400D01*
X0054582Y0065861D02*
X0054349Y0065627D01*
X0054349Y0065160D01*
X0054582Y0064927D01*
X0055516Y0064927D01*
X0055750Y0065160D01*
X0055750Y0065627D01*
X0055516Y0065861D01*
X0055750Y0066400D02*
X0054816Y0067334D01*
X0054582Y0067334D01*
X0054349Y0067101D01*
X0055750Y0067334D02*
X0055750Y0066400D01*
X0013351Y0013251D02*
X0013584Y0013018D01*
X0013584Y0012784D01*
X0013351Y0012551D01*
X0013584Y0012317D01*
X0013584Y0012084D01*
X0013351Y0011850D01*
X0012884Y0011850D01*
X0012650Y0012084D01*
X0012111Y0012084D02*
X0011877Y0011850D01*
X0011410Y0011850D01*
X0011177Y0012084D01*
X0011177Y0013018D01*
X0011410Y0013251D01*
X0011877Y0013251D01*
X0012111Y0013018D01*
X0012650Y0013018D02*
X0012884Y0013251D01*
X0013351Y0013251D01*
X0013351Y0012551D02*
X0013117Y0012551D01*
D13*
X0028957Y0018305D02*
X0036143Y0018305D01*
X0036143Y0006795D02*
X0028957Y0006795D01*
D14*
X0031098Y0009753D02*
X0031581Y0009753D01*
X0032549Y0010721D01*
X0034000Y0010721D01*
X0034000Y0012700D02*
X0034000Y0014635D01*
X0034000Y0013667D02*
X0031098Y0013667D01*
X0032065Y0012700D01*
X0031581Y0011688D02*
X0031098Y0011688D01*
X0031581Y0011688D02*
X0032549Y0010721D01*
M02*
