G75*
%MOIN*%
%OFA0B0*%
%FSLAX25Y25*%
%IPPOS*%
%LPD*%
%AMOC8*
5,1,8,0,0,1.08239X$1,22.5*
%
%ADD10R,0.03150X0.04724*%
%ADD11R,0.04724X0.03150*%
%ADD12R,0.05800X0.02000*%
%ADD13R,0.02000X0.05800*%
%ADD14R,0.07677X0.11614*%
D10*
X0006507Y0066300D03*
X0013593Y0066300D03*
X0051507Y0066300D03*
X0058593Y0066300D03*
D11*
X0012550Y0009007D03*
X0012550Y0016093D03*
X0052550Y0016093D03*
X0052550Y0009007D03*
X0038800Y0072757D03*
X0038800Y0079843D03*
X0026300Y0079843D03*
X0026300Y0072757D03*
X0013800Y0072757D03*
X0013800Y0079843D03*
D12*
X0015850Y0056074D03*
X0015850Y0052924D03*
X0015850Y0049774D03*
X0015850Y0046625D03*
X0015850Y0043475D03*
X0015850Y0040326D03*
X0015850Y0037176D03*
X0015850Y0034026D03*
X0049250Y0034026D03*
X0049250Y0037176D03*
X0049250Y0040326D03*
X0049250Y0043475D03*
X0049250Y0046625D03*
X0049250Y0049774D03*
X0049250Y0052924D03*
X0049250Y0056074D03*
D13*
X0043574Y0061750D03*
X0040424Y0061750D03*
X0037274Y0061750D03*
X0034125Y0061750D03*
X0030975Y0061750D03*
X0027826Y0061750D03*
X0024676Y0061750D03*
X0021526Y0061750D03*
X0021526Y0028350D03*
X0024676Y0028350D03*
X0027826Y0028350D03*
X0030975Y0028350D03*
X0034125Y0028350D03*
X0037274Y0028350D03*
X0040424Y0028350D03*
X0043574Y0028350D03*
D14*
X0041015Y0012550D03*
X0024085Y0012550D03*
M02*
