G75*
%MOIN*%
%OFA0B0*%
%FSLAX25Y25*%
%IPPOS*%
%LPD*%
%AMOC8*
5,1,8,0,0,1.08239X$1,22.5*
%
%ADD10R,0.03950X0.05524*%
%ADD11R,0.05524X0.03950*%
%ADD12C,0.04800*%
%ADD13R,0.06600X0.02800*%
%ADD14R,0.02800X0.06600*%
%ADD15R,0.08477X0.12414*%
%ADD16C,0.03700*%
D10*
X0006507Y0066300D03*
X0013593Y0066300D03*
X0051507Y0066300D03*
X0058593Y0066300D03*
D11*
X0012550Y0009007D03*
X0012550Y0016093D03*
X0052550Y0016093D03*
X0052550Y0009007D03*
X0038800Y0072757D03*
X0038800Y0079843D03*
X0026300Y0079843D03*
X0026300Y0072757D03*
X0013800Y0072757D03*
X0013800Y0079843D03*
D12*
X0022550Y0049050D03*
X0022550Y0041050D03*
X0042550Y0045050D03*
D13*
X0049250Y0043475D03*
X0049250Y0046625D03*
X0049250Y0049774D03*
X0049250Y0052924D03*
X0049250Y0056074D03*
X0049250Y0040326D03*
X0049250Y0037176D03*
X0049250Y0034026D03*
X0015850Y0034026D03*
X0015850Y0037176D03*
X0015850Y0040326D03*
X0015850Y0043475D03*
X0015850Y0046625D03*
X0015850Y0049774D03*
X0015850Y0052924D03*
X0015850Y0056074D03*
D14*
X0021526Y0061750D03*
X0024676Y0061750D03*
X0027826Y0061750D03*
X0030975Y0061750D03*
X0034125Y0061750D03*
X0037274Y0061750D03*
X0040424Y0061750D03*
X0043574Y0061750D03*
X0043574Y0028350D03*
X0040424Y0028350D03*
X0037274Y0028350D03*
X0034125Y0028350D03*
X0030975Y0028350D03*
X0027826Y0028350D03*
X0024676Y0028350D03*
X0021526Y0028350D03*
D15*
X0024085Y0012550D03*
X0041015Y0012550D03*
D16*
X0051300Y0026300D03*
X0041300Y0037550D03*
X0037550Y0037550D03*
X0037550Y0033800D03*
X0032863Y0035050D03*
X0022237Y0035050D03*
X0015050Y0025050D03*
X0012550Y0030050D03*
X0010050Y0025050D03*
X0010050Y0045050D03*
X0010050Y0050050D03*
X0007550Y0059300D03*
X0013593Y0061750D03*
X0007550Y0076300D03*
X0020050Y0076300D03*
X0032550Y0076300D03*
X0045050Y0076300D03*
X0032550Y0052550D03*
X0027550Y0051925D03*
M02*
