G75*
%MOIN*%
%OFA0B0*%
%FSLAX25Y25*%
%IPPOS*%
%LPD*%
%AMOC8*
5,1,8,0,0,1.08239X$1,22.5*
%
%ADD10R,0.03150X0.04724*%
%ADD11R,0.04724X0.03150*%
%ADD12R,0.05800X0.02000*%
%ADD13R,0.02000X0.05800*%
%ADD14R,0.07677X0.11614*%
%ADD15C,0.00600*%
%ADD16C,0.02900*%
%ADD17C,0.00800*%
%ADD18C,0.02400*%
D10*
X0006507Y0066300D03*
X0013593Y0066300D03*
X0051507Y0066300D03*
X0058593Y0066300D03*
D11*
X0038800Y0072757D03*
X0038800Y0079843D03*
X0026300Y0079843D03*
X0026300Y0072757D03*
X0013800Y0072757D03*
X0013800Y0079843D03*
X0012550Y0016093D03*
X0012550Y0009007D03*
X0052550Y0009007D03*
X0052550Y0016093D03*
D12*
X0049250Y0034026D03*
X0049250Y0037176D03*
X0049250Y0040326D03*
X0049250Y0043475D03*
X0049250Y0046625D03*
X0049250Y0049774D03*
X0049250Y0052924D03*
X0049250Y0056074D03*
X0015850Y0056074D03*
X0015850Y0052924D03*
X0015850Y0049774D03*
X0015850Y0046625D03*
X0015850Y0043475D03*
X0015850Y0040326D03*
X0015850Y0037176D03*
X0015850Y0034026D03*
D13*
X0021526Y0028350D03*
X0024676Y0028350D03*
X0027826Y0028350D03*
X0030975Y0028350D03*
X0034125Y0028350D03*
X0037274Y0028350D03*
X0040424Y0028350D03*
X0043574Y0028350D03*
X0043574Y0061750D03*
X0040424Y0061750D03*
X0037274Y0061750D03*
X0034125Y0061750D03*
X0030975Y0061750D03*
X0027826Y0061750D03*
X0024676Y0061750D03*
X0021526Y0061750D03*
D14*
X0024085Y0012550D03*
X0041015Y0012550D03*
D15*
X0003305Y0003305D02*
X0003124Y0003619D01*
X0003100Y0003800D01*
X0003100Y0084425D01*
X0003124Y0084606D01*
X0003305Y0084920D01*
X0003619Y0085101D01*
X0003800Y0085125D01*
X0061300Y0085125D01*
X0061481Y0085101D01*
X0061795Y0084920D01*
X0061976Y0084606D01*
X0062000Y0084425D01*
X0062000Y0003800D01*
X0061976Y0003619D01*
X0061795Y0003305D01*
X0061481Y0003124D01*
X0061300Y0003100D01*
X0003800Y0003100D01*
X0003619Y0003124D01*
X0003305Y0003305D01*
X0003114Y0003694D02*
X0061986Y0003694D01*
X0062000Y0004293D02*
X0003100Y0004293D01*
X0003100Y0004891D02*
X0062000Y0004891D01*
X0062000Y0005490D02*
X0045721Y0005490D01*
X0045474Y0005243D02*
X0046353Y0006122D01*
X0046353Y0014293D01*
X0048688Y0014293D01*
X0048688Y0013897D01*
X0049566Y0013019D01*
X0055534Y0013019D01*
X0056412Y0013897D01*
X0056412Y0018289D01*
X0055534Y0019168D01*
X0049566Y0019168D01*
X0048688Y0018289D01*
X0048688Y0017893D01*
X0046353Y0017893D01*
X0046353Y0018978D01*
X0045474Y0019857D01*
X0036555Y0019857D01*
X0035676Y0018978D01*
X0035676Y0014470D01*
X0034350Y0015796D01*
X0034350Y0018296D01*
X0031225Y0021421D01*
X0030171Y0022475D01*
X0016542Y0022475D01*
X0016721Y0022549D01*
X0017551Y0023379D01*
X0018000Y0024463D01*
X0018000Y0025637D01*
X0017650Y0026482D01*
X0017650Y0026761D01*
X0017798Y0027140D01*
X0017650Y0027477D01*
X0017650Y0031526D01*
X0019026Y0031526D01*
X0019026Y0024829D01*
X0019905Y0023950D01*
X0045195Y0023950D01*
X0046074Y0024829D01*
X0046074Y0031526D01*
X0052771Y0031526D01*
X0053650Y0032405D01*
X0053650Y0057695D01*
X0052771Y0058574D01*
X0046074Y0058574D01*
X0046074Y0064400D01*
X0048432Y0064400D01*
X0048432Y0063316D01*
X0049311Y0062438D01*
X0053703Y0062438D01*
X0054581Y0063316D01*
X0054581Y0069284D01*
X0053703Y0070162D01*
X0049311Y0070162D01*
X0048432Y0069284D01*
X0048432Y0068200D01*
X0038013Y0068200D01*
X0036900Y0067087D01*
X0035963Y0066150D01*
X0035653Y0066150D01*
X0035420Y0065917D01*
X0035296Y0065950D01*
X0034325Y0065950D01*
X0034325Y0061950D01*
X0033925Y0061950D01*
X0033925Y0065592D01*
X0038301Y0069552D01*
X0038430Y0069562D01*
X0038533Y0069682D01*
X0041784Y0069682D01*
X0042662Y0070561D01*
X0042662Y0074953D01*
X0041784Y0075831D01*
X0035816Y0075831D01*
X0035360Y0075375D01*
X0035500Y0075713D01*
X0035500Y0076704D01*
X0035690Y0076895D01*
X0035816Y0076769D01*
X0041784Y0076769D01*
X0042662Y0077647D01*
X0042662Y0082039D01*
X0041784Y0082918D01*
X0035816Y0082918D01*
X0034938Y0082039D01*
X0034938Y0081233D01*
X0032954Y0079250D01*
X0031963Y0079250D01*
X0030879Y0078801D01*
X0030162Y0078084D01*
X0030162Y0082039D01*
X0029284Y0082918D01*
X0023316Y0082918D01*
X0022438Y0082039D01*
X0022438Y0081233D01*
X0020454Y0079250D01*
X0019463Y0079250D01*
X0018379Y0078801D01*
X0017662Y0078084D01*
X0017662Y0082039D01*
X0016784Y0082918D01*
X0010816Y0082918D01*
X0010442Y0082543D01*
X0009306Y0082543D01*
X0008314Y0082132D01*
X0006021Y0079839D01*
X0005261Y0079079D01*
X0004850Y0078087D01*
X0004850Y0077490D01*
X0004600Y0076887D01*
X0004600Y0075713D01*
X0005049Y0074629D01*
X0005879Y0073799D01*
X0006963Y0073350D01*
X0008137Y0073350D01*
X0009221Y0073799D01*
X0009938Y0074516D01*
X0009938Y0070561D01*
X0010816Y0069682D01*
X0010917Y0069682D01*
X0010519Y0069284D01*
X0010519Y0063316D01*
X0010894Y0062941D01*
X0010643Y0062337D01*
X0010643Y0061163D01*
X0011092Y0060079D01*
X0011922Y0059249D01*
X0013007Y0058800D01*
X0014180Y0058800D01*
X0015264Y0059249D01*
X0015865Y0059850D01*
X0019026Y0059850D01*
X0019026Y0058574D01*
X0012329Y0058574D01*
X0011629Y0057874D01*
X0005328Y0057874D01*
X0004304Y0056850D01*
X0003250Y0055796D01*
X0003250Y0018054D01*
X0007011Y0014293D01*
X0008688Y0014293D01*
X0008688Y0013897D01*
X0009566Y0013019D01*
X0015534Y0013019D01*
X0016412Y0013897D01*
X0016412Y0014293D01*
X0018747Y0014293D01*
X0018747Y0006122D01*
X0019626Y0005243D01*
X0028545Y0005243D01*
X0029424Y0006122D01*
X0029424Y0018130D01*
X0030750Y0016804D01*
X0030750Y0014304D01*
X0031804Y0013250D01*
X0034304Y0010750D01*
X0035676Y0010750D01*
X0035676Y0006122D01*
X0036555Y0005243D01*
X0045474Y0005243D01*
X0046320Y0006088D02*
X0062000Y0006088D01*
X0062000Y0006687D02*
X0055983Y0006687D01*
X0055952Y0006634D02*
X0056124Y0006930D01*
X0056212Y0007261D01*
X0056212Y0008707D01*
X0052850Y0008707D01*
X0052850Y0009307D01*
X0052250Y0009307D01*
X0052250Y0011881D01*
X0050017Y0011881D01*
X0049686Y0011793D01*
X0049390Y0011622D01*
X0049148Y0011380D01*
X0048976Y0011083D01*
X0048888Y0010753D01*
X0048888Y0009307D01*
X0052250Y0009307D01*
X0052250Y0008707D01*
X0048888Y0008707D01*
X0048888Y0007261D01*
X0048976Y0006930D01*
X0049148Y0006634D01*
X0049390Y0006392D01*
X0049686Y0006220D01*
X0050017Y0006132D01*
X0052250Y0006132D01*
X0052250Y0008707D01*
X0052850Y0008707D01*
X0052850Y0006132D01*
X0055083Y0006132D01*
X0055414Y0006220D01*
X0055710Y0006392D01*
X0055952Y0006634D01*
X0056212Y0007285D02*
X0062000Y0007285D01*
X0062000Y0007884D02*
X0056212Y0007884D01*
X0056212Y0008482D02*
X0062000Y0008482D01*
X0062000Y0009081D02*
X0052850Y0009081D01*
X0052850Y0009307D02*
X0056212Y0009307D01*
X0056212Y0010753D01*
X0056124Y0011083D01*
X0055952Y0011380D01*
X0055710Y0011622D01*
X0055414Y0011793D01*
X0055083Y0011881D01*
X0052850Y0011881D01*
X0052850Y0009307D01*
X0052850Y0009679D02*
X0052250Y0009679D01*
X0052250Y0009081D02*
X0046353Y0009081D01*
X0046353Y0009679D02*
X0048888Y0009679D01*
X0048888Y0010278D02*
X0046353Y0010278D01*
X0046353Y0010876D02*
X0048921Y0010876D01*
X0049243Y0011475D02*
X0046353Y0011475D01*
X0046353Y0012073D02*
X0062000Y0012073D01*
X0062000Y0011475D02*
X0055857Y0011475D01*
X0056179Y0010876D02*
X0062000Y0010876D01*
X0062000Y0010278D02*
X0056212Y0010278D01*
X0056212Y0009679D02*
X0062000Y0009679D01*
X0062000Y0012672D02*
X0046353Y0012672D01*
X0046353Y0013270D02*
X0049315Y0013270D01*
X0048716Y0013869D02*
X0046353Y0013869D01*
X0044558Y0016093D02*
X0041015Y0012550D01*
X0035050Y0012550D01*
X0032550Y0015050D01*
X0032550Y0017550D01*
X0029425Y0020675D01*
X0009425Y0020675D01*
X0006925Y0023175D01*
X0006925Y0051925D01*
X0007924Y0052924D01*
X0015850Y0052924D01*
X0015574Y0050050D02*
X0010050Y0050050D01*
X0008725Y0049779D02*
X0015650Y0049779D01*
X0015650Y0049974D02*
X0015650Y0049574D01*
X0011650Y0049574D01*
X0011650Y0048603D01*
X0011683Y0048479D01*
X0011629Y0048425D01*
X0010879Y0048425D01*
X0010454Y0048000D01*
X0009463Y0048000D01*
X0008725Y0047694D01*
X0008725Y0051124D01*
X0011629Y0051124D01*
X0011683Y0051069D01*
X0011650Y0050946D01*
X0011650Y0049974D01*
X0015650Y0049974D01*
X0015574Y0050050D02*
X0015850Y0049774D01*
X0015850Y0046625D02*
X0011625Y0046625D01*
X0010050Y0045050D01*
X0009424Y0047984D02*
X0008725Y0047984D01*
X0008725Y0048582D02*
X0011656Y0048582D01*
X0011650Y0049181D02*
X0008725Y0049181D01*
X0008725Y0050378D02*
X0011650Y0050378D01*
X0011658Y0050976D02*
X0008725Y0050976D01*
X0005050Y0055050D02*
X0006074Y0056074D01*
X0015850Y0056074D01*
X0015371Y0059356D02*
X0019026Y0059356D01*
X0019026Y0058757D02*
X0003100Y0058757D01*
X0003100Y0058159D02*
X0011914Y0058159D01*
X0011816Y0059356D02*
X0003100Y0059356D01*
X0003100Y0059954D02*
X0011217Y0059954D01*
X0010896Y0060553D02*
X0003100Y0060553D01*
X0003100Y0061151D02*
X0010648Y0061151D01*
X0010643Y0061750D02*
X0003100Y0061750D01*
X0003100Y0062348D02*
X0010648Y0062348D01*
X0010888Y0062947D02*
X0008929Y0062947D01*
X0008880Y0062898D02*
X0009122Y0063140D01*
X0009293Y0063436D01*
X0009381Y0063767D01*
X0009381Y0066000D01*
X0006807Y0066000D01*
X0006807Y0066600D01*
X0009381Y0066600D01*
X0009381Y0068833D01*
X0009293Y0069164D01*
X0009122Y0069460D01*
X0008880Y0069702D01*
X0008583Y0069874D01*
X0008253Y0069962D01*
X0006807Y0069962D01*
X0006807Y0066600D01*
X0006207Y0066600D01*
X0006207Y0069962D01*
X0004761Y0069962D01*
X0004430Y0069874D01*
X0004134Y0069702D01*
X0003892Y0069460D01*
X0003720Y0069164D01*
X0003632Y0068833D01*
X0003632Y0066600D01*
X0006207Y0066600D01*
X0006207Y0066000D01*
X0006807Y0066000D01*
X0006807Y0062638D01*
X0008253Y0062638D01*
X0008583Y0062726D01*
X0008880Y0062898D01*
X0009322Y0063545D02*
X0010519Y0063545D01*
X0010519Y0064144D02*
X0009381Y0064144D01*
X0009381Y0064742D02*
X0010519Y0064742D01*
X0010519Y0065341D02*
X0009381Y0065341D01*
X0009381Y0065939D02*
X0010519Y0065939D01*
X0010519Y0066538D02*
X0006807Y0066538D01*
X0006807Y0067136D02*
X0006207Y0067136D01*
X0006207Y0066538D02*
X0003100Y0066538D01*
X0003100Y0067136D02*
X0003632Y0067136D01*
X0003632Y0067735D02*
X0003100Y0067735D01*
X0003100Y0068333D02*
X0003632Y0068333D01*
X0003658Y0068932D02*
X0003100Y0068932D01*
X0003100Y0069530D02*
X0003962Y0069530D01*
X0003100Y0070129D02*
X0010370Y0070129D01*
X0010765Y0069530D02*
X0009052Y0069530D01*
X0009355Y0068932D02*
X0010519Y0068932D01*
X0010519Y0068333D02*
X0009381Y0068333D01*
X0009381Y0067735D02*
X0010519Y0067735D01*
X0010519Y0067136D02*
X0009381Y0067136D01*
X0006807Y0067735D02*
X0006207Y0067735D01*
X0006207Y0068333D02*
X0006807Y0068333D01*
X0006807Y0068932D02*
X0006207Y0068932D01*
X0006207Y0069530D02*
X0006807Y0069530D01*
X0006207Y0066000D02*
X0003632Y0066000D01*
X0003632Y0063767D01*
X0003720Y0063436D01*
X0003892Y0063140D01*
X0004134Y0062898D01*
X0004430Y0062726D01*
X0004761Y0062638D01*
X0006207Y0062638D01*
X0006207Y0066000D01*
X0006207Y0065939D02*
X0006807Y0065939D01*
X0006807Y0065341D02*
X0006207Y0065341D01*
X0006207Y0064742D02*
X0006807Y0064742D01*
X0006807Y0064144D02*
X0006207Y0064144D01*
X0006207Y0063545D02*
X0006807Y0063545D01*
X0006807Y0062947D02*
X0006207Y0062947D01*
X0004085Y0062947D02*
X0003100Y0062947D01*
X0003100Y0063545D02*
X0003691Y0063545D01*
X0003632Y0064144D02*
X0003100Y0064144D01*
X0003100Y0064742D02*
X0003632Y0064742D01*
X0003632Y0065341D02*
X0003100Y0065341D01*
X0003100Y0065939D02*
X0003632Y0065939D01*
X0003100Y0070727D02*
X0009938Y0070727D01*
X0009938Y0071326D02*
X0003100Y0071326D01*
X0003100Y0071924D02*
X0009938Y0071924D01*
X0009938Y0072523D02*
X0003100Y0072523D01*
X0003100Y0073121D02*
X0009938Y0073121D01*
X0009938Y0073720D02*
X0009030Y0073720D01*
X0009740Y0074318D02*
X0009938Y0074318D01*
X0013593Y0072757D02*
X0013800Y0072757D01*
X0013800Y0066300D01*
X0013593Y0066300D01*
X0006070Y0073720D02*
X0003100Y0073720D01*
X0003100Y0074318D02*
X0005360Y0074318D01*
X0004930Y0074917D02*
X0003100Y0074917D01*
X0003100Y0075515D02*
X0004682Y0075515D01*
X0004600Y0076114D02*
X0003100Y0076114D01*
X0003100Y0076712D02*
X0004600Y0076712D01*
X0004776Y0077311D02*
X0003100Y0077311D01*
X0003100Y0077909D02*
X0004850Y0077909D01*
X0005024Y0078508D02*
X0003100Y0078508D01*
X0003100Y0079106D02*
X0005288Y0079106D01*
X0005887Y0079705D02*
X0003100Y0079705D01*
X0003100Y0080303D02*
X0006485Y0080303D01*
X0007084Y0080902D02*
X0003100Y0080902D01*
X0003100Y0081501D02*
X0007682Y0081501D01*
X0008281Y0082099D02*
X0003100Y0082099D01*
X0003100Y0082698D02*
X0010596Y0082698D01*
X0017004Y0082698D02*
X0023096Y0082698D01*
X0022497Y0082099D02*
X0017603Y0082099D01*
X0017662Y0081501D02*
X0022438Y0081501D01*
X0022106Y0080902D02*
X0017662Y0080902D01*
X0017662Y0080303D02*
X0021508Y0080303D01*
X0020909Y0079705D02*
X0017662Y0079705D01*
X0017662Y0079106D02*
X0019117Y0079106D01*
X0018086Y0078508D02*
X0017662Y0078508D01*
X0020050Y0076300D02*
X0023593Y0079843D01*
X0026300Y0079843D01*
X0029504Y0082698D02*
X0035596Y0082698D01*
X0034997Y0082099D02*
X0030103Y0082099D01*
X0030162Y0081501D02*
X0034938Y0081501D01*
X0034606Y0080902D02*
X0030162Y0080902D01*
X0030162Y0080303D02*
X0034008Y0080303D01*
X0033409Y0079705D02*
X0030162Y0079705D01*
X0030162Y0079106D02*
X0031617Y0079106D01*
X0030586Y0078508D02*
X0030162Y0078508D01*
X0032550Y0076300D02*
X0036093Y0079843D01*
X0038800Y0079843D01*
X0042004Y0082698D02*
X0062000Y0082698D01*
X0062000Y0083296D02*
X0003100Y0083296D01*
X0003100Y0083895D02*
X0062000Y0083895D01*
X0061991Y0084493D02*
X0003109Y0084493D01*
X0003602Y0085092D02*
X0061498Y0085092D01*
X0062000Y0082099D02*
X0042603Y0082099D01*
X0042662Y0081501D02*
X0062000Y0081501D01*
X0062000Y0080902D02*
X0042662Y0080902D01*
X0042662Y0080303D02*
X0062000Y0080303D01*
X0062000Y0079705D02*
X0042662Y0079705D01*
X0042662Y0079106D02*
X0062000Y0079106D01*
X0062000Y0078508D02*
X0042662Y0078508D01*
X0042662Y0077909D02*
X0062000Y0077909D01*
X0062000Y0077311D02*
X0042326Y0077311D01*
X0042100Y0075515D02*
X0062000Y0075515D01*
X0062000Y0074917D02*
X0042662Y0074917D01*
X0042662Y0074318D02*
X0062000Y0074318D01*
X0062000Y0073720D02*
X0042662Y0073720D01*
X0042662Y0073121D02*
X0062000Y0073121D01*
X0062000Y0072523D02*
X0042662Y0072523D01*
X0042662Y0071924D02*
X0062000Y0071924D01*
X0062000Y0071326D02*
X0042662Y0071326D01*
X0042662Y0070727D02*
X0062000Y0070727D01*
X0062000Y0070129D02*
X0053736Y0070129D01*
X0054335Y0069530D02*
X0056048Y0069530D01*
X0055978Y0069460D02*
X0056220Y0069702D01*
X0056517Y0069874D01*
X0056847Y0069962D01*
X0058293Y0069962D01*
X0058293Y0066600D01*
X0058293Y0066000D01*
X0055719Y0066000D01*
X0055719Y0063767D01*
X0055807Y0063436D01*
X0055978Y0063140D01*
X0056220Y0062898D01*
X0056517Y0062726D01*
X0056847Y0062638D01*
X0058293Y0062638D01*
X0058293Y0066000D01*
X0058893Y0066000D01*
X0058893Y0062638D01*
X0060339Y0062638D01*
X0060670Y0062726D01*
X0060966Y0062898D01*
X0061208Y0063140D01*
X0061380Y0063436D01*
X0061468Y0063767D01*
X0061468Y0066000D01*
X0058893Y0066000D01*
X0058893Y0066600D01*
X0058293Y0066600D01*
X0055719Y0066600D01*
X0055719Y0068833D01*
X0055807Y0069164D01*
X0055978Y0069460D01*
X0055745Y0068932D02*
X0054581Y0068932D01*
X0054581Y0068333D02*
X0055719Y0068333D01*
X0055719Y0067735D02*
X0054581Y0067735D01*
X0054581Y0067136D02*
X0055719Y0067136D01*
X0055719Y0065939D02*
X0054581Y0065939D01*
X0054581Y0065341D02*
X0055719Y0065341D01*
X0055719Y0064742D02*
X0054581Y0064742D01*
X0054581Y0064144D02*
X0055719Y0064144D01*
X0055778Y0063545D02*
X0054581Y0063545D01*
X0054212Y0062947D02*
X0056171Y0062947D01*
X0058293Y0062947D02*
X0058893Y0062947D01*
X0058893Y0063545D02*
X0058293Y0063545D01*
X0058293Y0064144D02*
X0058893Y0064144D01*
X0058893Y0064742D02*
X0058293Y0064742D01*
X0058293Y0065341D02*
X0058893Y0065341D01*
X0058893Y0065939D02*
X0058293Y0065939D01*
X0058293Y0066538D02*
X0054581Y0066538D01*
X0058293Y0067136D02*
X0058893Y0067136D01*
X0058893Y0066600D02*
X0058893Y0069962D01*
X0060339Y0069962D01*
X0060670Y0069874D01*
X0060966Y0069702D01*
X0061208Y0069460D01*
X0061380Y0069164D01*
X0061468Y0068833D01*
X0061468Y0066600D01*
X0058893Y0066600D01*
X0058893Y0066538D02*
X0062000Y0066538D01*
X0062000Y0067136D02*
X0061468Y0067136D01*
X0061468Y0067735D02*
X0062000Y0067735D01*
X0062000Y0068333D02*
X0061468Y0068333D01*
X0061442Y0068932D02*
X0062000Y0068932D01*
X0062000Y0069530D02*
X0061138Y0069530D01*
X0058893Y0069530D02*
X0058293Y0069530D01*
X0058293Y0068932D02*
X0058893Y0068932D01*
X0058893Y0068333D02*
X0058293Y0068333D01*
X0058293Y0067735D02*
X0058893Y0067735D01*
X0061468Y0065939D02*
X0062000Y0065939D01*
X0062000Y0065341D02*
X0061468Y0065341D01*
X0061468Y0064742D02*
X0062000Y0064742D01*
X0062000Y0064144D02*
X0061468Y0064144D01*
X0061409Y0063545D02*
X0062000Y0063545D01*
X0062000Y0062947D02*
X0061015Y0062947D01*
X0062000Y0062348D02*
X0046074Y0062348D01*
X0046074Y0061750D02*
X0062000Y0061750D01*
X0062000Y0061151D02*
X0046074Y0061151D01*
X0046074Y0060553D02*
X0062000Y0060553D01*
X0062000Y0059954D02*
X0046074Y0059954D01*
X0046074Y0059356D02*
X0062000Y0059356D01*
X0062000Y0058757D02*
X0046074Y0058757D01*
X0049250Y0056074D02*
X0041074Y0056074D01*
X0037550Y0052550D01*
X0032550Y0052550D01*
X0034704Y0054568D02*
X0037022Y0054568D01*
X0036804Y0054350D02*
X0034922Y0054350D01*
X0034221Y0055051D01*
X0033137Y0055500D01*
X0031963Y0055500D01*
X0030879Y0055051D01*
X0030049Y0054221D01*
X0029600Y0053137D01*
X0029600Y0051963D01*
X0030049Y0050879D01*
X0030879Y0050049D01*
X0031963Y0049600D01*
X0033137Y0049600D01*
X0034221Y0050049D01*
X0034922Y0050750D01*
X0038296Y0050750D01*
X0039350Y0051804D01*
X0041819Y0054274D01*
X0044850Y0054274D01*
X0044850Y0048124D01*
X0044703Y0048271D01*
X0043306Y0048850D01*
X0041794Y0048850D01*
X0040397Y0048271D01*
X0039329Y0047203D01*
X0038750Y0045806D01*
X0038750Y0044294D01*
X0039329Y0042897D01*
X0040397Y0041829D01*
X0041794Y0041250D01*
X0043306Y0041250D01*
X0044703Y0041829D01*
X0044850Y0041976D01*
X0044850Y0036546D01*
X0044250Y0037146D01*
X0044250Y0038137D01*
X0043801Y0039221D01*
X0042971Y0040051D01*
X0041887Y0040500D01*
X0040713Y0040500D01*
X0039629Y0040051D01*
X0039425Y0039847D01*
X0039221Y0040051D01*
X0038137Y0040500D01*
X0036963Y0040500D01*
X0035879Y0040051D01*
X0035049Y0039221D01*
X0034600Y0038137D01*
X0034600Y0036963D01*
X0035049Y0035879D01*
X0035253Y0035675D01*
X0035049Y0035471D01*
X0034600Y0034387D01*
X0034600Y0033213D01*
X0034792Y0032750D01*
X0029626Y0032750D01*
X0029626Y0034270D01*
X0027046Y0036850D01*
X0024609Y0036850D01*
X0023945Y0037515D01*
X0024703Y0037829D01*
X0025771Y0038897D01*
X0026350Y0040294D01*
X0026350Y0041806D01*
X0025771Y0043203D01*
X0024703Y0044271D01*
X0023306Y0044850D01*
X0021794Y0044850D01*
X0020397Y0044271D01*
X0020250Y0044124D01*
X0020250Y0045976D01*
X0020397Y0045829D01*
X0021794Y0045250D01*
X0023306Y0045250D01*
X0024703Y0045829D01*
X0025771Y0046897D01*
X0026350Y0048294D01*
X0026350Y0049806D01*
X0025771Y0051203D01*
X0024703Y0052271D01*
X0023306Y0052850D01*
X0021794Y0052850D01*
X0020397Y0052271D01*
X0020250Y0052124D01*
X0020250Y0057350D01*
X0032597Y0057350D01*
X0032830Y0057583D01*
X0032954Y0057550D01*
X0033925Y0057550D01*
X0033925Y0061550D01*
X0034325Y0061550D01*
X0034325Y0057550D01*
X0035296Y0057550D01*
X0035420Y0057583D01*
X0035653Y0057350D01*
X0039804Y0057350D01*
X0036804Y0054350D01*
X0037620Y0055166D02*
X0033943Y0055166D01*
X0033925Y0057560D02*
X0034325Y0057560D01*
X0034325Y0058159D02*
X0033925Y0058159D01*
X0033925Y0058757D02*
X0034325Y0058757D01*
X0034325Y0059356D02*
X0033925Y0059356D01*
X0033925Y0059954D02*
X0034325Y0059954D01*
X0034325Y0060553D02*
X0033925Y0060553D01*
X0033925Y0061151D02*
X0034325Y0061151D01*
X0034325Y0062348D02*
X0033925Y0062348D01*
X0033925Y0062947D02*
X0034325Y0062947D01*
X0034325Y0063545D02*
X0033925Y0063545D01*
X0033925Y0064144D02*
X0034325Y0064144D01*
X0034325Y0064742D02*
X0033925Y0064742D01*
X0033925Y0065341D02*
X0034325Y0065341D01*
X0034309Y0065939D02*
X0034325Y0065939D01*
X0034970Y0066538D02*
X0036351Y0066538D01*
X0036949Y0067136D02*
X0035631Y0067136D01*
X0036293Y0067735D02*
X0037548Y0067735D01*
X0036954Y0068333D02*
X0048432Y0068333D01*
X0048432Y0068932D02*
X0037616Y0068932D01*
X0038277Y0069530D02*
X0048679Y0069530D01*
X0049277Y0070129D02*
X0042230Y0070129D01*
X0038800Y0072757D02*
X0037550Y0071300D01*
X0030975Y0065350D01*
X0030975Y0061750D01*
X0032807Y0057560D02*
X0032916Y0057560D01*
X0031157Y0055166D02*
X0020250Y0055166D01*
X0020250Y0054568D02*
X0030396Y0054568D01*
X0029945Y0053969D02*
X0020250Y0053969D01*
X0020250Y0053370D02*
X0029697Y0053370D01*
X0029600Y0052772D02*
X0023494Y0052772D01*
X0024801Y0052173D02*
X0029600Y0052173D01*
X0029761Y0051575D02*
X0025399Y0051575D01*
X0025865Y0050976D02*
X0030009Y0050976D01*
X0030550Y0050378D02*
X0026113Y0050378D01*
X0026350Y0049779D02*
X0031530Y0049779D01*
X0033570Y0049779D02*
X0044850Y0049779D01*
X0044850Y0049181D02*
X0026350Y0049181D01*
X0026350Y0048582D02*
X0041148Y0048582D01*
X0040110Y0047984D02*
X0026221Y0047984D01*
X0025974Y0047385D02*
X0039511Y0047385D01*
X0039156Y0046787D02*
X0025661Y0046787D01*
X0025062Y0046188D02*
X0038908Y0046188D01*
X0038750Y0045590D02*
X0024126Y0045590D01*
X0024410Y0044393D02*
X0038750Y0044393D01*
X0038750Y0044991D02*
X0020250Y0044991D01*
X0020250Y0044393D02*
X0020690Y0044393D01*
X0020974Y0045590D02*
X0020250Y0045590D01*
X0025180Y0043794D02*
X0038957Y0043794D01*
X0039205Y0043196D02*
X0025774Y0043196D01*
X0026022Y0042597D02*
X0039629Y0042597D01*
X0040227Y0041999D02*
X0026270Y0041999D01*
X0026350Y0041400D02*
X0041431Y0041400D01*
X0042603Y0040203D02*
X0044850Y0040203D01*
X0044850Y0039605D02*
X0043417Y0039605D01*
X0043890Y0039006D02*
X0044850Y0039006D01*
X0044850Y0038408D02*
X0044138Y0038408D01*
X0044250Y0037809D02*
X0044850Y0037809D01*
X0044850Y0037211D02*
X0044250Y0037211D01*
X0044783Y0036612D02*
X0044850Y0036612D01*
X0044824Y0034026D02*
X0041300Y0037550D01*
X0039997Y0040203D02*
X0038853Y0040203D01*
X0037550Y0037550D02*
X0043574Y0031526D01*
X0043574Y0028350D01*
X0046074Y0028233D02*
X0062000Y0028233D01*
X0062000Y0027634D02*
X0046074Y0027634D01*
X0046074Y0027036D02*
X0062000Y0027036D01*
X0062000Y0026437D02*
X0046074Y0026437D01*
X0046074Y0025839D02*
X0062000Y0025839D01*
X0062000Y0025240D02*
X0046074Y0025240D01*
X0045887Y0024642D02*
X0062000Y0024642D01*
X0062000Y0024043D02*
X0045288Y0024043D01*
X0045478Y0019854D02*
X0062000Y0019854D01*
X0062000Y0020452D02*
X0032193Y0020452D01*
X0032792Y0019854D02*
X0036551Y0019854D01*
X0035953Y0019255D02*
X0033390Y0019255D01*
X0033989Y0018657D02*
X0035676Y0018657D01*
X0035676Y0018058D02*
X0034350Y0018058D01*
X0034350Y0017460D02*
X0035676Y0017460D01*
X0035676Y0016861D02*
X0034350Y0016861D01*
X0034350Y0016263D02*
X0035676Y0016263D01*
X0035676Y0015664D02*
X0034481Y0015664D01*
X0035080Y0015066D02*
X0035676Y0015066D01*
X0032981Y0012073D02*
X0029424Y0012073D01*
X0029424Y0011475D02*
X0033580Y0011475D01*
X0034178Y0010876D02*
X0029424Y0010876D01*
X0029424Y0010278D02*
X0035676Y0010278D01*
X0035676Y0009679D02*
X0029424Y0009679D01*
X0029424Y0009081D02*
X0035676Y0009081D01*
X0035676Y0008482D02*
X0029424Y0008482D01*
X0029424Y0007884D02*
X0035676Y0007884D01*
X0035676Y0007285D02*
X0029424Y0007285D01*
X0029424Y0006687D02*
X0035676Y0006687D01*
X0035709Y0006088D02*
X0029391Y0006088D01*
X0028792Y0005490D02*
X0036308Y0005490D01*
X0032383Y0012672D02*
X0029424Y0012672D01*
X0029424Y0013270D02*
X0031784Y0013270D01*
X0031186Y0013869D02*
X0029424Y0013869D01*
X0029424Y0014467D02*
X0030750Y0014467D01*
X0030750Y0015066D02*
X0029424Y0015066D01*
X0029424Y0015664D02*
X0030750Y0015664D01*
X0030750Y0016263D02*
X0029424Y0016263D01*
X0029424Y0016861D02*
X0030693Y0016861D01*
X0030095Y0017460D02*
X0029424Y0017460D01*
X0029424Y0018058D02*
X0029496Y0018058D01*
X0031595Y0021051D02*
X0062000Y0021051D01*
X0062000Y0021649D02*
X0030996Y0021649D01*
X0030398Y0022248D02*
X0062000Y0022248D01*
X0062000Y0022846D02*
X0017018Y0022846D01*
X0017578Y0023445D02*
X0062000Y0023445D01*
X0062000Y0019255D02*
X0046076Y0019255D01*
X0046353Y0018657D02*
X0049055Y0018657D01*
X0048688Y0018058D02*
X0046353Y0018058D01*
X0044558Y0016093D02*
X0052550Y0016093D01*
X0055785Y0013270D02*
X0062000Y0013270D01*
X0062000Y0013869D02*
X0056384Y0013869D01*
X0056412Y0014467D02*
X0062000Y0014467D01*
X0062000Y0015066D02*
X0056412Y0015066D01*
X0056412Y0015664D02*
X0062000Y0015664D01*
X0062000Y0016263D02*
X0056412Y0016263D01*
X0056412Y0016861D02*
X0062000Y0016861D01*
X0062000Y0017460D02*
X0056412Y0017460D01*
X0056412Y0018058D02*
X0062000Y0018058D01*
X0062000Y0018657D02*
X0056045Y0018657D01*
X0052850Y0011475D02*
X0052250Y0011475D01*
X0052250Y0010876D02*
X0052850Y0010876D01*
X0052850Y0010278D02*
X0052250Y0010278D01*
X0052250Y0008482D02*
X0052850Y0008482D01*
X0052850Y0007884D02*
X0052250Y0007884D01*
X0052250Y0007285D02*
X0052850Y0007285D01*
X0052850Y0006687D02*
X0052250Y0006687D01*
X0049117Y0006687D02*
X0046353Y0006687D01*
X0046353Y0007285D02*
X0048888Y0007285D01*
X0048888Y0007884D02*
X0046353Y0007884D01*
X0046353Y0008482D02*
X0048888Y0008482D01*
X0046074Y0028832D02*
X0062000Y0028832D01*
X0062000Y0029430D02*
X0046074Y0029430D01*
X0046074Y0030029D02*
X0062000Y0030029D01*
X0062000Y0030627D02*
X0046074Y0030627D01*
X0046074Y0031226D02*
X0062000Y0031226D01*
X0062000Y0031824D02*
X0053069Y0031824D01*
X0053650Y0032423D02*
X0062000Y0032423D01*
X0062000Y0033021D02*
X0053650Y0033021D01*
X0053650Y0033620D02*
X0062000Y0033620D01*
X0062000Y0034218D02*
X0053650Y0034218D01*
X0053650Y0034817D02*
X0062000Y0034817D01*
X0062000Y0035415D02*
X0053650Y0035415D01*
X0053650Y0036014D02*
X0062000Y0036014D01*
X0062000Y0036612D02*
X0053650Y0036612D01*
X0053650Y0037211D02*
X0062000Y0037211D01*
X0062000Y0037809D02*
X0053650Y0037809D01*
X0053650Y0038408D02*
X0062000Y0038408D01*
X0062000Y0039006D02*
X0053650Y0039006D01*
X0053650Y0039605D02*
X0062000Y0039605D01*
X0062000Y0040203D02*
X0053650Y0040203D01*
X0053650Y0040802D02*
X0062000Y0040802D01*
X0062000Y0041400D02*
X0053650Y0041400D01*
X0053650Y0041999D02*
X0062000Y0041999D01*
X0062000Y0042597D02*
X0053650Y0042597D01*
X0053650Y0043196D02*
X0062000Y0043196D01*
X0062000Y0043794D02*
X0053650Y0043794D01*
X0053650Y0044393D02*
X0062000Y0044393D01*
X0062000Y0044991D02*
X0053650Y0044991D01*
X0053650Y0045590D02*
X0062000Y0045590D01*
X0062000Y0046188D02*
X0053650Y0046188D01*
X0053650Y0046787D02*
X0062000Y0046787D01*
X0062000Y0047385D02*
X0053650Y0047385D01*
X0053650Y0047984D02*
X0062000Y0047984D01*
X0062000Y0048582D02*
X0053650Y0048582D01*
X0053650Y0049181D02*
X0062000Y0049181D01*
X0062000Y0049779D02*
X0053650Y0049779D01*
X0053650Y0050378D02*
X0062000Y0050378D01*
X0062000Y0050976D02*
X0053650Y0050976D01*
X0053650Y0051575D02*
X0062000Y0051575D01*
X0062000Y0052173D02*
X0053650Y0052173D01*
X0053650Y0052772D02*
X0062000Y0052772D01*
X0062000Y0053370D02*
X0053650Y0053370D01*
X0053650Y0053969D02*
X0062000Y0053969D01*
X0062000Y0054568D02*
X0053650Y0054568D01*
X0053650Y0055166D02*
X0062000Y0055166D01*
X0062000Y0055765D02*
X0053650Y0055765D01*
X0053650Y0056363D02*
X0062000Y0056363D01*
X0062000Y0056962D02*
X0053650Y0056962D01*
X0053650Y0057560D02*
X0062000Y0057560D01*
X0062000Y0058159D02*
X0053186Y0058159D01*
X0048802Y0062947D02*
X0046074Y0062947D01*
X0046074Y0063545D02*
X0048432Y0063545D01*
X0048432Y0064144D02*
X0046074Y0064144D01*
X0039416Y0056962D02*
X0020250Y0056962D01*
X0020250Y0056363D02*
X0038817Y0056363D01*
X0038219Y0055765D02*
X0020250Y0055765D01*
X0020250Y0052772D02*
X0021606Y0052772D01*
X0020299Y0052173D02*
X0020250Y0052173D01*
X0021526Y0061750D02*
X0024676Y0061750D01*
X0027826Y0061750D02*
X0027826Y0072481D01*
X0026300Y0072757D01*
X0035418Y0075515D02*
X0035500Y0075515D01*
X0035500Y0076114D02*
X0062000Y0076114D01*
X0062000Y0076712D02*
X0035508Y0076712D01*
X0035442Y0065939D02*
X0035336Y0065939D01*
X0035334Y0057560D02*
X0035443Y0057560D01*
X0040318Y0052772D02*
X0044850Y0052772D01*
X0044850Y0053370D02*
X0040916Y0053370D01*
X0041515Y0053969D02*
X0044850Y0053969D01*
X0044850Y0052173D02*
X0039719Y0052173D01*
X0039121Y0051575D02*
X0044850Y0051575D01*
X0044850Y0050976D02*
X0038522Y0050976D01*
X0034550Y0050378D02*
X0044850Y0050378D01*
X0044850Y0048582D02*
X0043952Y0048582D01*
X0043669Y0041400D02*
X0044850Y0041400D01*
X0044850Y0040802D02*
X0026350Y0040802D01*
X0026312Y0040203D02*
X0036247Y0040203D01*
X0035433Y0039605D02*
X0026064Y0039605D01*
X0025817Y0039006D02*
X0034960Y0039006D01*
X0034712Y0038408D02*
X0025282Y0038408D01*
X0024656Y0037809D02*
X0034600Y0037809D01*
X0034600Y0037211D02*
X0024249Y0037211D01*
X0022237Y0035050D02*
X0026300Y0035050D01*
X0027826Y0033524D01*
X0027826Y0028350D01*
X0029626Y0033021D02*
X0034680Y0033021D01*
X0034600Y0033620D02*
X0029626Y0033620D01*
X0029626Y0034218D02*
X0034600Y0034218D01*
X0034778Y0034817D02*
X0029079Y0034817D01*
X0028480Y0035415D02*
X0035026Y0035415D01*
X0034993Y0036014D02*
X0027882Y0036014D01*
X0027283Y0036612D02*
X0034745Y0036612D01*
X0037550Y0033800D02*
X0040424Y0030926D01*
X0040424Y0028350D01*
X0044824Y0034026D02*
X0049250Y0034026D01*
X0024085Y0012550D02*
X0020542Y0016093D01*
X0012550Y0016093D01*
X0007757Y0016093D01*
X0005050Y0018800D01*
X0005050Y0055050D01*
X0003817Y0056363D02*
X0003100Y0056363D01*
X0003100Y0055765D02*
X0003250Y0055765D01*
X0003250Y0055166D02*
X0003100Y0055166D01*
X0003100Y0054568D02*
X0003250Y0054568D01*
X0003250Y0053969D02*
X0003100Y0053969D01*
X0003100Y0053370D02*
X0003250Y0053370D01*
X0003250Y0052772D02*
X0003100Y0052772D01*
X0003100Y0052173D02*
X0003250Y0052173D01*
X0003250Y0051575D02*
X0003100Y0051575D01*
X0003100Y0050976D02*
X0003250Y0050976D01*
X0003250Y0050378D02*
X0003100Y0050378D01*
X0003100Y0049779D02*
X0003250Y0049779D01*
X0003250Y0049181D02*
X0003100Y0049181D01*
X0003100Y0048582D02*
X0003250Y0048582D01*
X0003250Y0047984D02*
X0003100Y0047984D01*
X0003100Y0047385D02*
X0003250Y0047385D01*
X0003250Y0046787D02*
X0003100Y0046787D01*
X0003100Y0046188D02*
X0003250Y0046188D01*
X0003250Y0045590D02*
X0003100Y0045590D01*
X0003100Y0044991D02*
X0003250Y0044991D01*
X0003250Y0044393D02*
X0003100Y0044393D01*
X0003100Y0043794D02*
X0003250Y0043794D01*
X0003250Y0043196D02*
X0003100Y0043196D01*
X0003100Y0042597D02*
X0003250Y0042597D01*
X0003250Y0041999D02*
X0003100Y0041999D01*
X0003100Y0041400D02*
X0003250Y0041400D01*
X0003250Y0040802D02*
X0003100Y0040802D01*
X0003100Y0040203D02*
X0003250Y0040203D01*
X0003250Y0039605D02*
X0003100Y0039605D01*
X0003100Y0039006D02*
X0003250Y0039006D01*
X0003250Y0038408D02*
X0003100Y0038408D01*
X0003100Y0037809D02*
X0003250Y0037809D01*
X0003250Y0037211D02*
X0003100Y0037211D01*
X0003100Y0036612D02*
X0003250Y0036612D01*
X0003250Y0036014D02*
X0003100Y0036014D01*
X0003100Y0035415D02*
X0003250Y0035415D01*
X0003250Y0034817D02*
X0003100Y0034817D01*
X0003100Y0034218D02*
X0003250Y0034218D01*
X0003250Y0033620D02*
X0003100Y0033620D01*
X0003100Y0033021D02*
X0003250Y0033021D01*
X0003250Y0032423D02*
X0003100Y0032423D01*
X0003100Y0031824D02*
X0003250Y0031824D01*
X0003250Y0031226D02*
X0003100Y0031226D01*
X0003100Y0030627D02*
X0003250Y0030627D01*
X0003250Y0030029D02*
X0003100Y0030029D01*
X0003100Y0029430D02*
X0003250Y0029430D01*
X0003250Y0028832D02*
X0003100Y0028832D01*
X0003100Y0028233D02*
X0003250Y0028233D01*
X0003250Y0027634D02*
X0003100Y0027634D01*
X0003100Y0027036D02*
X0003250Y0027036D01*
X0003250Y0026437D02*
X0003100Y0026437D01*
X0003100Y0025839D02*
X0003250Y0025839D01*
X0003250Y0025240D02*
X0003100Y0025240D01*
X0003100Y0024642D02*
X0003250Y0024642D01*
X0003250Y0024043D02*
X0003100Y0024043D01*
X0003100Y0023445D02*
X0003250Y0023445D01*
X0003250Y0022846D02*
X0003100Y0022846D01*
X0003100Y0022248D02*
X0003250Y0022248D01*
X0003250Y0021649D02*
X0003100Y0021649D01*
X0003100Y0021051D02*
X0003250Y0021051D01*
X0003250Y0020452D02*
X0003100Y0020452D01*
X0003100Y0019854D02*
X0003250Y0019854D01*
X0003250Y0019255D02*
X0003100Y0019255D01*
X0003100Y0018657D02*
X0003250Y0018657D01*
X0003250Y0018058D02*
X0003100Y0018058D01*
X0003100Y0017460D02*
X0003845Y0017460D01*
X0004443Y0016861D02*
X0003100Y0016861D01*
X0003100Y0016263D02*
X0005042Y0016263D01*
X0005640Y0015664D02*
X0003100Y0015664D01*
X0003100Y0015066D02*
X0006239Y0015066D01*
X0006837Y0014467D02*
X0003100Y0014467D01*
X0003100Y0013869D02*
X0008716Y0013869D01*
X0009315Y0013270D02*
X0003100Y0013270D01*
X0003100Y0012672D02*
X0018747Y0012672D01*
X0018747Y0013270D02*
X0015785Y0013270D01*
X0016384Y0013869D02*
X0018747Y0013869D01*
X0018747Y0012073D02*
X0003100Y0012073D01*
X0003100Y0011475D02*
X0009243Y0011475D01*
X0009148Y0011380D02*
X0009390Y0011622D01*
X0009686Y0011793D01*
X0010017Y0011881D01*
X0012250Y0011881D01*
X0012250Y0009307D01*
X0012850Y0009307D01*
X0012850Y0011881D01*
X0015083Y0011881D01*
X0015414Y0011793D01*
X0015710Y0011622D01*
X0015952Y0011380D01*
X0016124Y0011083D01*
X0016212Y0010753D01*
X0016212Y0009307D01*
X0012850Y0009307D01*
X0012850Y0008707D01*
X0016212Y0008707D01*
X0016212Y0007261D01*
X0016124Y0006930D01*
X0015952Y0006634D01*
X0015710Y0006392D01*
X0015414Y0006220D01*
X0015083Y0006132D01*
X0012850Y0006132D01*
X0012850Y0008707D01*
X0012250Y0008707D01*
X0008888Y0008707D01*
X0008888Y0007261D01*
X0008976Y0006930D01*
X0009148Y0006634D01*
X0009390Y0006392D01*
X0009686Y0006220D01*
X0010017Y0006132D01*
X0012250Y0006132D01*
X0012250Y0008707D01*
X0012250Y0009307D01*
X0008888Y0009307D01*
X0008888Y0010753D01*
X0008976Y0011083D01*
X0009148Y0011380D01*
X0008921Y0010876D02*
X0003100Y0010876D01*
X0003100Y0010278D02*
X0008888Y0010278D01*
X0008888Y0009679D02*
X0003100Y0009679D01*
X0003100Y0009081D02*
X0012250Y0009081D01*
X0012250Y0009679D02*
X0012850Y0009679D01*
X0012850Y0009081D02*
X0018747Y0009081D01*
X0018747Y0009679D02*
X0016212Y0009679D01*
X0016212Y0010278D02*
X0018747Y0010278D01*
X0018747Y0010876D02*
X0016179Y0010876D01*
X0015857Y0011475D02*
X0018747Y0011475D01*
X0018747Y0008482D02*
X0016212Y0008482D01*
X0016212Y0007884D02*
X0018747Y0007884D01*
X0018747Y0007285D02*
X0016212Y0007285D01*
X0015983Y0006687D02*
X0018747Y0006687D01*
X0018780Y0006088D02*
X0003100Y0006088D01*
X0003100Y0005490D02*
X0019379Y0005490D01*
X0012850Y0006687D02*
X0012250Y0006687D01*
X0012250Y0007285D02*
X0012850Y0007285D01*
X0012850Y0007884D02*
X0012250Y0007884D01*
X0012250Y0008482D02*
X0012850Y0008482D01*
X0012850Y0010278D02*
X0012250Y0010278D01*
X0012250Y0010876D02*
X0012850Y0010876D01*
X0012850Y0011475D02*
X0012250Y0011475D01*
X0008888Y0008482D02*
X0003100Y0008482D01*
X0003100Y0007884D02*
X0008888Y0007884D01*
X0008888Y0007285D02*
X0003100Y0007285D01*
X0003100Y0006687D02*
X0009117Y0006687D01*
X0017826Y0024043D02*
X0019812Y0024043D01*
X0019213Y0024642D02*
X0018000Y0024642D01*
X0018000Y0025240D02*
X0019026Y0025240D01*
X0019026Y0025839D02*
X0017916Y0025839D01*
X0017668Y0026437D02*
X0019026Y0026437D01*
X0019026Y0027036D02*
X0017757Y0027036D01*
X0017650Y0027634D02*
X0019026Y0027634D01*
X0019026Y0028233D02*
X0017650Y0028233D01*
X0017650Y0028832D02*
X0019026Y0028832D01*
X0019026Y0029430D02*
X0017650Y0029430D01*
X0017650Y0030029D02*
X0019026Y0030029D01*
X0019026Y0030627D02*
X0017650Y0030627D01*
X0017650Y0031226D02*
X0019026Y0031226D01*
X0015850Y0034026D02*
X0015850Y0027100D01*
X0015050Y0025050D01*
X0012550Y0030050D02*
X0010675Y0031925D01*
X0010675Y0036301D01*
X0011550Y0037176D01*
X0015850Y0037176D01*
X0015850Y0040326D02*
X0010300Y0040326D01*
X0008800Y0038826D01*
X0008800Y0026300D01*
X0010050Y0025050D01*
X0004416Y0056962D02*
X0003100Y0056962D01*
X0003100Y0057560D02*
X0005014Y0057560D01*
D16*
X0007550Y0059300D03*
X0013593Y0061750D03*
X0010050Y0050050D03*
X0010050Y0045050D03*
X0012550Y0030050D03*
X0010050Y0025050D03*
X0015050Y0025050D03*
X0022237Y0035050D03*
X0032863Y0035050D03*
X0037550Y0033800D03*
X0037550Y0037550D03*
X0041300Y0037550D03*
X0051300Y0026300D03*
X0032550Y0052550D03*
X0027550Y0051925D03*
X0032550Y0076300D03*
X0045050Y0076300D03*
X0020050Y0076300D03*
X0007550Y0076300D03*
D17*
X0013593Y0066300D02*
X0013593Y0061750D01*
X0021526Y0061750D01*
X0037274Y0061750D02*
X0037274Y0064774D01*
X0038800Y0066300D01*
X0051507Y0066300D01*
D18*
X0013800Y0079843D02*
X0009843Y0079843D01*
X0007550Y0077550D01*
X0007550Y0076300D01*
X0013593Y0079843D02*
X0013800Y0079843D01*
M02*
