G75*
%MOIN*%
%OFA0B0*%
%FSLAX25Y25*%
%IPPOS*%
%LPD*%
%AMOC8*
5,1,8,0,0,1.08239X$1,22.5*
%
%ADD10C,0.00200*%
%ADD11C,0.00300*%
%ADD12C,0.00500*%
%ADD13C,0.00400*%
%ADD14C,0.00600*%
D10*
X0004877Y0004952D02*
X0006345Y0004952D01*
X0005611Y0004952D02*
X0005611Y0002750D01*
X0007087Y0002750D02*
X0007087Y0004952D01*
X0007087Y0003851D02*
X0008555Y0003851D01*
X0008555Y0002750D02*
X0008555Y0004952D01*
X0009297Y0004952D02*
X0009297Y0002750D01*
X0010031Y0003484D01*
X0010765Y0002750D01*
X0010765Y0004952D01*
X0017377Y0004218D02*
X0017377Y0002750D01*
X0017377Y0003851D02*
X0018845Y0003851D01*
X0018845Y0004218D02*
X0018111Y0004952D01*
X0017377Y0004218D01*
X0018845Y0004218D02*
X0018845Y0002750D01*
X0019587Y0002750D02*
X0020321Y0003484D01*
X0019954Y0003484D02*
X0019587Y0003851D01*
X0019587Y0004585D01*
X0019954Y0004952D01*
X0021055Y0004952D01*
X0021055Y0002750D01*
X0021055Y0003484D02*
X0019954Y0003484D01*
X0021797Y0003117D02*
X0021797Y0004585D01*
X0022164Y0004952D01*
X0022898Y0004952D01*
X0023265Y0004585D01*
X0023265Y0003117D01*
X0022898Y0002750D01*
X0022164Y0002750D01*
X0021797Y0003117D01*
X0029877Y0003117D02*
X0029877Y0004585D01*
X0030244Y0004952D01*
X0031345Y0004952D01*
X0031345Y0002750D01*
X0030244Y0002750D01*
X0029877Y0003117D01*
X0032087Y0002750D02*
X0033555Y0002750D01*
X0033555Y0004952D01*
X0032087Y0004952D01*
X0032821Y0003851D02*
X0033555Y0003851D01*
X0034297Y0003851D02*
X0034297Y0004585D01*
X0034664Y0004952D01*
X0035765Y0004952D01*
X0035765Y0002750D01*
X0035765Y0003484D02*
X0034664Y0003484D01*
X0034297Y0003851D01*
X0035031Y0003484D02*
X0034297Y0002750D01*
X0042377Y0002750D02*
X0043845Y0002750D01*
X0043845Y0004952D01*
X0044587Y0004952D02*
X0046055Y0004952D01*
X0046055Y0002750D01*
X0044587Y0002750D01*
X0045321Y0003851D02*
X0046055Y0003851D01*
X0046797Y0004585D02*
X0046797Y0004952D01*
X0046797Y0004585D02*
X0047531Y0003851D01*
X0047531Y0002750D01*
X0047531Y0003851D02*
X0048265Y0004585D01*
X0048265Y0004952D01*
X0054877Y0004585D02*
X0054877Y0003117D01*
X0055244Y0002750D01*
X0055978Y0002750D01*
X0056345Y0003117D01*
X0056345Y0004585D01*
X0055978Y0004952D01*
X0055244Y0004952D01*
X0054877Y0004585D01*
X0057087Y0004585D02*
X0057087Y0003851D01*
X0057454Y0003484D01*
X0058555Y0003484D01*
X0058555Y0002750D02*
X0058555Y0004952D01*
X0057454Y0004952D01*
X0057087Y0004585D01*
X0057821Y0003484D02*
X0057087Y0002750D01*
X0059297Y0003117D02*
X0059664Y0002750D01*
X0060765Y0002750D01*
X0060765Y0004952D01*
X0059664Y0004952D01*
X0059297Y0004585D01*
X0059297Y0004218D01*
X0059664Y0003851D01*
X0060765Y0003851D01*
X0059664Y0003851D02*
X0059297Y0003484D01*
X0059297Y0003117D01*
X0059664Y0018900D02*
X0060765Y0018900D01*
X0060765Y0021102D01*
X0059664Y0021102D01*
X0059297Y0020735D01*
X0059297Y0020368D01*
X0059664Y0020001D01*
X0060765Y0020001D01*
X0059664Y0020001D02*
X0059297Y0019634D01*
X0059297Y0019267D01*
X0059664Y0018900D01*
X0058555Y0018900D02*
X0058555Y0021102D01*
X0057454Y0021102D01*
X0057087Y0020735D01*
X0057087Y0020001D01*
X0057454Y0019634D01*
X0058555Y0019634D01*
X0057821Y0019634D02*
X0057087Y0018900D01*
X0056345Y0019267D02*
X0055978Y0018900D01*
X0055244Y0018900D01*
X0054877Y0019267D01*
X0054877Y0020735D01*
X0055244Y0021102D01*
X0055978Y0021102D01*
X0056345Y0020735D01*
X0056345Y0019267D01*
X0048265Y0019634D02*
X0047164Y0019634D01*
X0046797Y0020001D01*
X0046797Y0020735D01*
X0047164Y0021102D01*
X0048265Y0021102D01*
X0048265Y0018900D01*
X0047531Y0019634D02*
X0046797Y0018900D01*
X0046055Y0018900D02*
X0044587Y0018900D01*
X0043845Y0018900D02*
X0042744Y0018900D01*
X0042377Y0019267D01*
X0042377Y0020735D01*
X0042744Y0021102D01*
X0043845Y0021102D01*
X0043845Y0018900D01*
X0045321Y0020001D02*
X0046055Y0020001D01*
X0046055Y0021102D02*
X0046055Y0018900D01*
X0046055Y0021102D02*
X0044587Y0021102D01*
X0035765Y0021102D02*
X0035765Y0020735D01*
X0035031Y0020001D01*
X0035031Y0018900D01*
X0035031Y0020001D02*
X0034297Y0020735D01*
X0034297Y0021102D01*
X0033555Y0021102D02*
X0033555Y0018900D01*
X0032087Y0018900D01*
X0031345Y0018900D02*
X0029877Y0018900D01*
X0031345Y0018900D02*
X0031345Y0021102D01*
X0032087Y0021102D02*
X0033555Y0021102D01*
X0033555Y0020001D02*
X0032821Y0020001D01*
X0023265Y0019267D02*
X0022898Y0018900D01*
X0022164Y0018900D01*
X0021797Y0019267D01*
X0021797Y0020735D01*
X0022164Y0021102D01*
X0022898Y0021102D01*
X0023265Y0020735D01*
X0023265Y0019267D01*
X0021055Y0018900D02*
X0021055Y0021102D01*
X0019954Y0021102D01*
X0019587Y0020735D01*
X0019587Y0020001D01*
X0019954Y0019634D01*
X0021055Y0019634D01*
X0020321Y0019634D02*
X0019587Y0018900D01*
X0018845Y0018900D02*
X0018845Y0020368D01*
X0018111Y0021102D01*
X0017377Y0020368D01*
X0017377Y0018900D01*
X0017377Y0020001D02*
X0018845Y0020001D01*
X0010765Y0021102D02*
X0010765Y0018900D01*
X0010031Y0019634D01*
X0009297Y0018900D01*
X0009297Y0021102D01*
X0008555Y0021102D02*
X0008555Y0018900D01*
X0008555Y0020001D02*
X0007087Y0020001D01*
X0007087Y0021102D02*
X0007087Y0018900D01*
X0005611Y0018900D02*
X0005611Y0021102D01*
X0006345Y0021102D02*
X0004877Y0021102D01*
X0011494Y0083275D02*
X0011127Y0083642D01*
X0011127Y0085110D01*
X0011494Y0085477D01*
X0012595Y0085477D01*
X0012595Y0083275D01*
X0011494Y0083275D01*
X0013337Y0083275D02*
X0014805Y0083275D01*
X0014805Y0085477D01*
X0013337Y0085477D01*
X0014071Y0084376D02*
X0014805Y0084376D01*
X0015547Y0084376D02*
X0015547Y0085110D01*
X0015914Y0085477D01*
X0017015Y0085477D01*
X0017015Y0083275D01*
X0017015Y0084009D02*
X0015914Y0084009D01*
X0015547Y0084376D01*
X0016281Y0084009D02*
X0015547Y0083275D01*
X0023627Y0085477D02*
X0025095Y0085477D01*
X0024361Y0085477D02*
X0024361Y0083275D01*
X0025837Y0083275D02*
X0025837Y0085477D01*
X0025837Y0084376D02*
X0027305Y0084376D01*
X0027305Y0083275D02*
X0027305Y0085477D01*
X0028047Y0085477D02*
X0028047Y0083275D01*
X0028781Y0084009D01*
X0029515Y0083275D01*
X0029515Y0085477D01*
X0036127Y0085477D02*
X0036127Y0083275D01*
X0037595Y0085477D01*
X0037595Y0083275D01*
X0038337Y0083275D02*
X0039071Y0084009D01*
X0038704Y0084009D02*
X0039805Y0084009D01*
X0039805Y0083275D02*
X0039805Y0085477D01*
X0038704Y0085477D01*
X0038337Y0085110D01*
X0038337Y0084376D01*
X0038704Y0084009D01*
X0040547Y0083642D02*
X0040547Y0084376D01*
X0041281Y0084376D01*
X0042015Y0085110D02*
X0041648Y0085477D01*
X0040914Y0085477D01*
X0040547Y0085110D01*
X0042015Y0085110D02*
X0042015Y0083642D01*
X0041648Y0083275D01*
X0040914Y0083275D01*
X0040547Y0083642D01*
X0048627Y0083275D02*
X0049728Y0084376D01*
X0050095Y0084009D02*
X0048627Y0085477D01*
X0050095Y0085477D02*
X0050095Y0083275D01*
X0050837Y0083275D02*
X0052305Y0083275D01*
X0052305Y0085477D01*
X0053047Y0085110D02*
X0053047Y0084743D01*
X0053414Y0084376D01*
X0054515Y0084376D01*
X0054515Y0085477D02*
X0053414Y0085477D01*
X0053047Y0085110D01*
X0053414Y0084376D02*
X0053047Y0084009D01*
X0053047Y0083642D01*
X0053414Y0083275D01*
X0054515Y0083275D01*
X0054515Y0085477D01*
D11*
X0037809Y0026852D02*
X0036842Y0026852D01*
X0036358Y0026369D01*
X0036842Y0025401D02*
X0036358Y0024917D01*
X0036358Y0024434D01*
X0036842Y0023950D01*
X0037809Y0023950D01*
X0038293Y0024434D01*
X0037809Y0025401D02*
X0036842Y0025401D01*
X0037809Y0025401D02*
X0038293Y0025885D01*
X0038293Y0026369D01*
X0037809Y0026852D01*
X0035347Y0026852D02*
X0035347Y0023950D01*
X0033412Y0023950D02*
X0033412Y0026852D01*
X0032400Y0026852D02*
X0032400Y0023950D01*
X0030465Y0023950D01*
X0029453Y0024434D02*
X0028970Y0023950D01*
X0028002Y0023950D01*
X0027519Y0024434D01*
X0027519Y0024917D01*
X0028002Y0025401D01*
X0028970Y0025401D01*
X0029453Y0025885D01*
X0029453Y0026369D01*
X0028970Y0026852D01*
X0028002Y0026852D01*
X0027519Y0026369D01*
X0030465Y0026852D02*
X0032400Y0026852D01*
X0032400Y0025401D02*
X0031433Y0025401D01*
X0033412Y0023950D02*
X0035347Y0026852D01*
D12*
X0038800Y0028800D02*
X0026300Y0028800D01*
X0025050Y0027550D01*
X0025050Y0023800D01*
X0023800Y0022550D01*
X0003800Y0022550D01*
X0002550Y0021300D01*
X0002550Y0017550D01*
X0062550Y0017550D01*
X0062550Y0021300D01*
X0061300Y0022550D01*
X0041300Y0022550D01*
X0040050Y0023800D01*
X0040050Y0027550D01*
X0038800Y0028800D01*
D13*
X0038515Y0055625D02*
X0038515Y0059228D01*
X0039716Y0058027D01*
X0039716Y0055625D02*
X0037314Y0055625D01*
X0036033Y0056226D02*
X0035433Y0055625D01*
X0034232Y0055625D01*
X0033631Y0056226D01*
X0033631Y0058628D01*
X0034232Y0059228D01*
X0035433Y0059228D01*
X0036033Y0058628D01*
X0036033Y0058027D01*
X0035433Y0057427D01*
X0033631Y0057427D01*
X0032350Y0058027D02*
X0031149Y0059228D01*
X0031149Y0055625D01*
X0032350Y0055625D02*
X0029948Y0055625D01*
X0028667Y0055625D02*
X0026265Y0055625D01*
X0027466Y0055625D02*
X0027466Y0059228D01*
X0028667Y0058027D01*
X0027493Y0060750D02*
X0029895Y0060750D01*
X0027493Y0063152D01*
X0027493Y0063753D01*
X0028093Y0064353D01*
X0029294Y0064353D01*
X0029895Y0063753D01*
X0031176Y0063753D02*
X0031776Y0064353D01*
X0032977Y0064353D01*
X0033578Y0063753D01*
X0033578Y0063152D01*
X0032977Y0062552D01*
X0031776Y0062552D01*
X0031176Y0061951D01*
X0031176Y0061351D01*
X0031776Y0060750D01*
X0032977Y0060750D01*
X0033578Y0061351D01*
X0034859Y0060750D02*
X0037261Y0060750D01*
X0037261Y0064353D01*
X0034859Y0064353D01*
X0034205Y0065875D02*
X0033004Y0065875D01*
X0032403Y0066476D01*
X0031122Y0066476D02*
X0030522Y0065875D01*
X0029321Y0065875D01*
X0028720Y0066476D01*
X0028720Y0067677D01*
X0029321Y0068277D01*
X0030522Y0068277D01*
X0031122Y0067677D01*
X0031122Y0066476D01*
X0032403Y0068878D02*
X0033004Y0069478D01*
X0034205Y0069478D01*
X0034805Y0068878D01*
X0034805Y0066476D01*
X0034205Y0065875D01*
X0036060Y0062552D02*
X0037261Y0062552D01*
X0038542Y0060750D02*
X0038542Y0064353D01*
X0039770Y0065875D02*
X0041571Y0065875D01*
X0042172Y0066476D01*
X0042172Y0067677D01*
X0041571Y0068277D01*
X0039770Y0068277D01*
X0040944Y0064353D02*
X0038542Y0060750D01*
X0040944Y0060750D02*
X0040944Y0064353D01*
X0042198Y0063152D02*
X0042198Y0061951D01*
X0043399Y0060750D01*
X0044681Y0061351D02*
X0044681Y0061951D01*
X0045281Y0062552D01*
X0046482Y0062552D01*
X0047083Y0063152D01*
X0047083Y0063753D01*
X0046482Y0064353D01*
X0045281Y0064353D01*
X0044681Y0063753D01*
X0043399Y0064353D02*
X0042198Y0063152D01*
X0043426Y0065875D02*
X0044627Y0065875D01*
X0044027Y0065875D02*
X0044027Y0068277D01*
X0044627Y0068277D01*
X0044027Y0069478D02*
X0044027Y0070079D01*
X0045895Y0068277D02*
X0046495Y0068277D01*
X0047696Y0067076D01*
X0047696Y0065875D02*
X0047696Y0068277D01*
X0048978Y0069478D02*
X0051380Y0069478D01*
X0051380Y0065875D01*
X0048978Y0065875D01*
X0048337Y0064353D02*
X0049538Y0063152D01*
X0049538Y0061951D01*
X0048337Y0060750D01*
X0047083Y0061351D02*
X0046482Y0060750D01*
X0045281Y0060750D01*
X0044681Y0061351D01*
X0050179Y0067677D02*
X0051380Y0067677D01*
X0027439Y0068277D02*
X0027439Y0065875D01*
X0026211Y0064353D02*
X0026211Y0061351D01*
X0025611Y0060750D01*
X0024410Y0060750D01*
X0023809Y0061351D01*
X0023809Y0064353D01*
X0022528Y0063753D02*
X0022528Y0063152D01*
X0021928Y0062552D01*
X0020727Y0062552D01*
X0020126Y0061951D01*
X0020126Y0061351D01*
X0020727Y0060750D01*
X0021928Y0060750D01*
X0022528Y0061351D01*
X0022528Y0063753D02*
X0021928Y0064353D01*
X0020727Y0064353D01*
X0020126Y0063753D01*
X0018845Y0064353D02*
X0017044Y0064353D01*
X0016443Y0063753D01*
X0016443Y0063152D01*
X0017044Y0062552D01*
X0018845Y0062552D01*
X0018845Y0064353D02*
X0018845Y0060750D01*
X0017044Y0060750D01*
X0016443Y0061351D01*
X0016443Y0061951D01*
X0017044Y0062552D01*
X0016390Y0065875D02*
X0016390Y0068277D01*
X0016390Y0067076D02*
X0015189Y0068277D01*
X0014588Y0068277D01*
X0017671Y0067677D02*
X0017671Y0067076D01*
X0020073Y0067076D01*
X0020073Y0066476D02*
X0020073Y0067677D01*
X0019472Y0068277D01*
X0018271Y0068277D01*
X0017671Y0067677D01*
X0018271Y0065875D02*
X0019472Y0065875D01*
X0020073Y0066476D01*
X0021354Y0065875D02*
X0021354Y0067677D01*
X0021954Y0068277D01*
X0023756Y0068277D01*
X0023756Y0065875D01*
X0025037Y0065875D02*
X0025037Y0067677D01*
X0025638Y0068277D01*
X0027439Y0068277D01*
D14*
X0024812Y0038175D02*
X0030287Y0038175D01*
X0030987Y0037475D01*
X0030987Y0032625D01*
X0030287Y0031925D01*
X0024812Y0031925D01*
X0024112Y0032625D01*
X0024112Y0037475D01*
X0024812Y0038175D01*
M02*
