G75*
%MOIN*%
%OFA0B0*%
%FSLAX25Y25*%
%IPPOS*%
%LPD*%
%AMOC8*
5,1,8,0,0,1.08239X$1,22.5*
%
%ADD10C,0.00000*%
D10*
X0001300Y0003800D02*
X0001300Y0084425D01*
X0001302Y0084523D01*
X0001308Y0084621D01*
X0001317Y0084719D01*
X0001331Y0084816D01*
X0001348Y0084913D01*
X0001369Y0085009D01*
X0001394Y0085104D01*
X0001422Y0085198D01*
X0001455Y0085290D01*
X0001490Y0085382D01*
X0001530Y0085472D01*
X0001572Y0085560D01*
X0001619Y0085647D01*
X0001668Y0085731D01*
X0001721Y0085814D01*
X0001777Y0085894D01*
X0001837Y0085973D01*
X0001899Y0086049D01*
X0001964Y0086122D01*
X0002032Y0086193D01*
X0002103Y0086261D01*
X0002176Y0086326D01*
X0002252Y0086388D01*
X0002331Y0086448D01*
X0002411Y0086504D01*
X0002494Y0086557D01*
X0002578Y0086606D01*
X0002665Y0086653D01*
X0002753Y0086695D01*
X0002843Y0086735D01*
X0002935Y0086770D01*
X0003027Y0086803D01*
X0003121Y0086831D01*
X0003216Y0086856D01*
X0003312Y0086877D01*
X0003409Y0086894D01*
X0003506Y0086908D01*
X0003604Y0086917D01*
X0003702Y0086923D01*
X0003800Y0086925D01*
X0061300Y0086925D01*
X0061398Y0086923D01*
X0061496Y0086917D01*
X0061594Y0086908D01*
X0061691Y0086894D01*
X0061788Y0086877D01*
X0061884Y0086856D01*
X0061979Y0086831D01*
X0062073Y0086803D01*
X0062165Y0086770D01*
X0062257Y0086735D01*
X0062347Y0086695D01*
X0062435Y0086653D01*
X0062522Y0086606D01*
X0062606Y0086557D01*
X0062689Y0086504D01*
X0062769Y0086448D01*
X0062848Y0086388D01*
X0062924Y0086326D01*
X0062997Y0086261D01*
X0063068Y0086193D01*
X0063136Y0086122D01*
X0063201Y0086049D01*
X0063263Y0085973D01*
X0063323Y0085894D01*
X0063379Y0085814D01*
X0063432Y0085731D01*
X0063481Y0085647D01*
X0063528Y0085560D01*
X0063570Y0085472D01*
X0063610Y0085382D01*
X0063645Y0085290D01*
X0063678Y0085198D01*
X0063706Y0085104D01*
X0063731Y0085009D01*
X0063752Y0084913D01*
X0063769Y0084816D01*
X0063783Y0084719D01*
X0063792Y0084621D01*
X0063798Y0084523D01*
X0063800Y0084425D01*
X0063800Y0003800D01*
X0063798Y0003702D01*
X0063792Y0003604D01*
X0063783Y0003506D01*
X0063769Y0003409D01*
X0063752Y0003312D01*
X0063731Y0003216D01*
X0063706Y0003121D01*
X0063678Y0003027D01*
X0063645Y0002935D01*
X0063610Y0002843D01*
X0063570Y0002753D01*
X0063528Y0002665D01*
X0063481Y0002578D01*
X0063432Y0002494D01*
X0063379Y0002411D01*
X0063323Y0002331D01*
X0063263Y0002252D01*
X0063201Y0002176D01*
X0063136Y0002103D01*
X0063068Y0002032D01*
X0062997Y0001964D01*
X0062924Y0001899D01*
X0062848Y0001837D01*
X0062769Y0001777D01*
X0062689Y0001721D01*
X0062606Y0001668D01*
X0062522Y0001619D01*
X0062435Y0001572D01*
X0062347Y0001530D01*
X0062257Y0001490D01*
X0062165Y0001455D01*
X0062073Y0001422D01*
X0061979Y0001394D01*
X0061884Y0001369D01*
X0061788Y0001348D01*
X0061691Y0001331D01*
X0061594Y0001317D01*
X0061496Y0001308D01*
X0061398Y0001302D01*
X0061300Y0001300D01*
X0003800Y0001300D01*
X0003702Y0001302D01*
X0003604Y0001308D01*
X0003506Y0001317D01*
X0003409Y0001331D01*
X0003312Y0001348D01*
X0003216Y0001369D01*
X0003121Y0001394D01*
X0003027Y0001422D01*
X0002935Y0001455D01*
X0002843Y0001490D01*
X0002753Y0001530D01*
X0002665Y0001572D01*
X0002578Y0001619D01*
X0002494Y0001668D01*
X0002411Y0001721D01*
X0002331Y0001777D01*
X0002252Y0001837D01*
X0002176Y0001899D01*
X0002103Y0001964D01*
X0002032Y0002032D01*
X0001964Y0002103D01*
X0001899Y0002176D01*
X0001837Y0002252D01*
X0001777Y0002331D01*
X0001721Y0002411D01*
X0001668Y0002494D01*
X0001619Y0002578D01*
X0001572Y0002665D01*
X0001530Y0002753D01*
X0001490Y0002843D01*
X0001455Y0002935D01*
X0001422Y0003027D01*
X0001394Y0003121D01*
X0001369Y0003216D01*
X0001348Y0003312D01*
X0001331Y0003409D01*
X0001317Y0003506D01*
X0001308Y0003604D01*
X0001302Y0003702D01*
X0001300Y0003800D01*
X0020550Y0041050D02*
X0020552Y0041139D01*
X0020558Y0041228D01*
X0020568Y0041317D01*
X0020582Y0041405D01*
X0020599Y0041492D01*
X0020621Y0041578D01*
X0020647Y0041664D01*
X0020676Y0041748D01*
X0020709Y0041831D01*
X0020745Y0041912D01*
X0020786Y0041992D01*
X0020829Y0042069D01*
X0020876Y0042145D01*
X0020927Y0042218D01*
X0020980Y0042289D01*
X0021037Y0042358D01*
X0021097Y0042424D01*
X0021160Y0042488D01*
X0021225Y0042548D01*
X0021293Y0042606D01*
X0021364Y0042660D01*
X0021437Y0042711D01*
X0021512Y0042759D01*
X0021589Y0042804D01*
X0021668Y0042845D01*
X0021749Y0042882D01*
X0021831Y0042916D01*
X0021915Y0042947D01*
X0022000Y0042973D01*
X0022086Y0042996D01*
X0022173Y0043014D01*
X0022261Y0043029D01*
X0022350Y0043040D01*
X0022439Y0043047D01*
X0022528Y0043050D01*
X0022617Y0043049D01*
X0022706Y0043044D01*
X0022794Y0043035D01*
X0022883Y0043022D01*
X0022970Y0043005D01*
X0023057Y0042985D01*
X0023143Y0042960D01*
X0023227Y0042932D01*
X0023310Y0042900D01*
X0023392Y0042864D01*
X0023472Y0042825D01*
X0023550Y0042782D01*
X0023626Y0042736D01*
X0023700Y0042686D01*
X0023772Y0042633D01*
X0023841Y0042577D01*
X0023908Y0042518D01*
X0023972Y0042456D01*
X0024033Y0042392D01*
X0024092Y0042324D01*
X0024147Y0042254D01*
X0024199Y0042182D01*
X0024248Y0042107D01*
X0024293Y0042031D01*
X0024335Y0041952D01*
X0024373Y0041872D01*
X0024408Y0041790D01*
X0024439Y0041706D01*
X0024467Y0041621D01*
X0024490Y0041535D01*
X0024510Y0041448D01*
X0024526Y0041361D01*
X0024538Y0041272D01*
X0024546Y0041184D01*
X0024550Y0041095D01*
X0024550Y0041005D01*
X0024546Y0040916D01*
X0024538Y0040828D01*
X0024526Y0040739D01*
X0024510Y0040652D01*
X0024490Y0040565D01*
X0024467Y0040479D01*
X0024439Y0040394D01*
X0024408Y0040310D01*
X0024373Y0040228D01*
X0024335Y0040148D01*
X0024293Y0040069D01*
X0024248Y0039993D01*
X0024199Y0039918D01*
X0024147Y0039846D01*
X0024092Y0039776D01*
X0024033Y0039708D01*
X0023972Y0039644D01*
X0023908Y0039582D01*
X0023841Y0039523D01*
X0023772Y0039467D01*
X0023700Y0039414D01*
X0023626Y0039364D01*
X0023550Y0039318D01*
X0023472Y0039275D01*
X0023392Y0039236D01*
X0023310Y0039200D01*
X0023227Y0039168D01*
X0023143Y0039140D01*
X0023057Y0039115D01*
X0022970Y0039095D01*
X0022883Y0039078D01*
X0022794Y0039065D01*
X0022706Y0039056D01*
X0022617Y0039051D01*
X0022528Y0039050D01*
X0022439Y0039053D01*
X0022350Y0039060D01*
X0022261Y0039071D01*
X0022173Y0039086D01*
X0022086Y0039104D01*
X0022000Y0039127D01*
X0021915Y0039153D01*
X0021831Y0039184D01*
X0021749Y0039218D01*
X0021668Y0039255D01*
X0021589Y0039296D01*
X0021512Y0039341D01*
X0021437Y0039389D01*
X0021364Y0039440D01*
X0021293Y0039494D01*
X0021225Y0039552D01*
X0021160Y0039612D01*
X0021097Y0039676D01*
X0021037Y0039742D01*
X0020980Y0039811D01*
X0020927Y0039882D01*
X0020876Y0039955D01*
X0020829Y0040031D01*
X0020786Y0040108D01*
X0020745Y0040188D01*
X0020709Y0040269D01*
X0020676Y0040352D01*
X0020647Y0040436D01*
X0020621Y0040522D01*
X0020599Y0040608D01*
X0020582Y0040695D01*
X0020568Y0040783D01*
X0020558Y0040872D01*
X0020552Y0040961D01*
X0020550Y0041050D01*
X0020550Y0049050D02*
X0020552Y0049139D01*
X0020558Y0049228D01*
X0020568Y0049317D01*
X0020582Y0049405D01*
X0020599Y0049492D01*
X0020621Y0049578D01*
X0020647Y0049664D01*
X0020676Y0049748D01*
X0020709Y0049831D01*
X0020745Y0049912D01*
X0020786Y0049992D01*
X0020829Y0050069D01*
X0020876Y0050145D01*
X0020927Y0050218D01*
X0020980Y0050289D01*
X0021037Y0050358D01*
X0021097Y0050424D01*
X0021160Y0050488D01*
X0021225Y0050548D01*
X0021293Y0050606D01*
X0021364Y0050660D01*
X0021437Y0050711D01*
X0021512Y0050759D01*
X0021589Y0050804D01*
X0021668Y0050845D01*
X0021749Y0050882D01*
X0021831Y0050916D01*
X0021915Y0050947D01*
X0022000Y0050973D01*
X0022086Y0050996D01*
X0022173Y0051014D01*
X0022261Y0051029D01*
X0022350Y0051040D01*
X0022439Y0051047D01*
X0022528Y0051050D01*
X0022617Y0051049D01*
X0022706Y0051044D01*
X0022794Y0051035D01*
X0022883Y0051022D01*
X0022970Y0051005D01*
X0023057Y0050985D01*
X0023143Y0050960D01*
X0023227Y0050932D01*
X0023310Y0050900D01*
X0023392Y0050864D01*
X0023472Y0050825D01*
X0023550Y0050782D01*
X0023626Y0050736D01*
X0023700Y0050686D01*
X0023772Y0050633D01*
X0023841Y0050577D01*
X0023908Y0050518D01*
X0023972Y0050456D01*
X0024033Y0050392D01*
X0024092Y0050324D01*
X0024147Y0050254D01*
X0024199Y0050182D01*
X0024248Y0050107D01*
X0024293Y0050031D01*
X0024335Y0049952D01*
X0024373Y0049872D01*
X0024408Y0049790D01*
X0024439Y0049706D01*
X0024467Y0049621D01*
X0024490Y0049535D01*
X0024510Y0049448D01*
X0024526Y0049361D01*
X0024538Y0049272D01*
X0024546Y0049184D01*
X0024550Y0049095D01*
X0024550Y0049005D01*
X0024546Y0048916D01*
X0024538Y0048828D01*
X0024526Y0048739D01*
X0024510Y0048652D01*
X0024490Y0048565D01*
X0024467Y0048479D01*
X0024439Y0048394D01*
X0024408Y0048310D01*
X0024373Y0048228D01*
X0024335Y0048148D01*
X0024293Y0048069D01*
X0024248Y0047993D01*
X0024199Y0047918D01*
X0024147Y0047846D01*
X0024092Y0047776D01*
X0024033Y0047708D01*
X0023972Y0047644D01*
X0023908Y0047582D01*
X0023841Y0047523D01*
X0023772Y0047467D01*
X0023700Y0047414D01*
X0023626Y0047364D01*
X0023550Y0047318D01*
X0023472Y0047275D01*
X0023392Y0047236D01*
X0023310Y0047200D01*
X0023227Y0047168D01*
X0023143Y0047140D01*
X0023057Y0047115D01*
X0022970Y0047095D01*
X0022883Y0047078D01*
X0022794Y0047065D01*
X0022706Y0047056D01*
X0022617Y0047051D01*
X0022528Y0047050D01*
X0022439Y0047053D01*
X0022350Y0047060D01*
X0022261Y0047071D01*
X0022173Y0047086D01*
X0022086Y0047104D01*
X0022000Y0047127D01*
X0021915Y0047153D01*
X0021831Y0047184D01*
X0021749Y0047218D01*
X0021668Y0047255D01*
X0021589Y0047296D01*
X0021512Y0047341D01*
X0021437Y0047389D01*
X0021364Y0047440D01*
X0021293Y0047494D01*
X0021225Y0047552D01*
X0021160Y0047612D01*
X0021097Y0047676D01*
X0021037Y0047742D01*
X0020980Y0047811D01*
X0020927Y0047882D01*
X0020876Y0047955D01*
X0020829Y0048031D01*
X0020786Y0048108D01*
X0020745Y0048188D01*
X0020709Y0048269D01*
X0020676Y0048352D01*
X0020647Y0048436D01*
X0020621Y0048522D01*
X0020599Y0048608D01*
X0020582Y0048695D01*
X0020568Y0048783D01*
X0020558Y0048872D01*
X0020552Y0048961D01*
X0020550Y0049050D01*
X0040550Y0045050D02*
X0040552Y0045139D01*
X0040558Y0045228D01*
X0040568Y0045317D01*
X0040582Y0045405D01*
X0040599Y0045492D01*
X0040621Y0045578D01*
X0040647Y0045664D01*
X0040676Y0045748D01*
X0040709Y0045831D01*
X0040745Y0045912D01*
X0040786Y0045992D01*
X0040829Y0046069D01*
X0040876Y0046145D01*
X0040927Y0046218D01*
X0040980Y0046289D01*
X0041037Y0046358D01*
X0041097Y0046424D01*
X0041160Y0046488D01*
X0041225Y0046548D01*
X0041293Y0046606D01*
X0041364Y0046660D01*
X0041437Y0046711D01*
X0041512Y0046759D01*
X0041589Y0046804D01*
X0041668Y0046845D01*
X0041749Y0046882D01*
X0041831Y0046916D01*
X0041915Y0046947D01*
X0042000Y0046973D01*
X0042086Y0046996D01*
X0042173Y0047014D01*
X0042261Y0047029D01*
X0042350Y0047040D01*
X0042439Y0047047D01*
X0042528Y0047050D01*
X0042617Y0047049D01*
X0042706Y0047044D01*
X0042794Y0047035D01*
X0042883Y0047022D01*
X0042970Y0047005D01*
X0043057Y0046985D01*
X0043143Y0046960D01*
X0043227Y0046932D01*
X0043310Y0046900D01*
X0043392Y0046864D01*
X0043472Y0046825D01*
X0043550Y0046782D01*
X0043626Y0046736D01*
X0043700Y0046686D01*
X0043772Y0046633D01*
X0043841Y0046577D01*
X0043908Y0046518D01*
X0043972Y0046456D01*
X0044033Y0046392D01*
X0044092Y0046324D01*
X0044147Y0046254D01*
X0044199Y0046182D01*
X0044248Y0046107D01*
X0044293Y0046031D01*
X0044335Y0045952D01*
X0044373Y0045872D01*
X0044408Y0045790D01*
X0044439Y0045706D01*
X0044467Y0045621D01*
X0044490Y0045535D01*
X0044510Y0045448D01*
X0044526Y0045361D01*
X0044538Y0045272D01*
X0044546Y0045184D01*
X0044550Y0045095D01*
X0044550Y0045005D01*
X0044546Y0044916D01*
X0044538Y0044828D01*
X0044526Y0044739D01*
X0044510Y0044652D01*
X0044490Y0044565D01*
X0044467Y0044479D01*
X0044439Y0044394D01*
X0044408Y0044310D01*
X0044373Y0044228D01*
X0044335Y0044148D01*
X0044293Y0044069D01*
X0044248Y0043993D01*
X0044199Y0043918D01*
X0044147Y0043846D01*
X0044092Y0043776D01*
X0044033Y0043708D01*
X0043972Y0043644D01*
X0043908Y0043582D01*
X0043841Y0043523D01*
X0043772Y0043467D01*
X0043700Y0043414D01*
X0043626Y0043364D01*
X0043550Y0043318D01*
X0043472Y0043275D01*
X0043392Y0043236D01*
X0043310Y0043200D01*
X0043227Y0043168D01*
X0043143Y0043140D01*
X0043057Y0043115D01*
X0042970Y0043095D01*
X0042883Y0043078D01*
X0042794Y0043065D01*
X0042706Y0043056D01*
X0042617Y0043051D01*
X0042528Y0043050D01*
X0042439Y0043053D01*
X0042350Y0043060D01*
X0042261Y0043071D01*
X0042173Y0043086D01*
X0042086Y0043104D01*
X0042000Y0043127D01*
X0041915Y0043153D01*
X0041831Y0043184D01*
X0041749Y0043218D01*
X0041668Y0043255D01*
X0041589Y0043296D01*
X0041512Y0043341D01*
X0041437Y0043389D01*
X0041364Y0043440D01*
X0041293Y0043494D01*
X0041225Y0043552D01*
X0041160Y0043612D01*
X0041097Y0043676D01*
X0041037Y0043742D01*
X0040980Y0043811D01*
X0040927Y0043882D01*
X0040876Y0043955D01*
X0040829Y0044031D01*
X0040786Y0044108D01*
X0040745Y0044188D01*
X0040709Y0044269D01*
X0040676Y0044352D01*
X0040647Y0044436D01*
X0040621Y0044522D01*
X0040599Y0044608D01*
X0040582Y0044695D01*
X0040568Y0044783D01*
X0040558Y0044872D01*
X0040552Y0044961D01*
X0040550Y0045050D01*
M02*
